<?xml version="1.0" encoding="UTF-8"?>
<svg version="1.1" xmlns="http://www.w3.org/2000/svg" width="200" height="200">
<path d="M0 0 C5.21487502 4.98453602 8.45723328 9.59320848 9.203125 17.0234375 C9.11138151 19.56473217 8.45959348 21.68671603 7.75 24.125 C7.0157695 27.29378425 6.77676555 28.57596633 8.40625 31.4375 C9.6653229 32.9313153 10.94092276 34.41131644 12.23046875 35.87890625 C19.24462788 44.42605686 19.05798358 55.57532394 18.36132812 66.09570312 C17.62735814 72.59224736 14.43821901 77.41215038 10.125 82.1875 C12.765 82.1875 15.405 82.1875 18.125 82.1875 C18.785 80.2075 19.445 78.2275 20.125 76.1875 C22.0625 76.5 22.0625 76.5 24.125 77.1875 C24.455 78.1775 24.785 79.1675 25.125 80.1875 C26.8265625 80.6515625 26.8265625 80.6515625 28.5625 81.125 C32.125 82.1875 32.125 82.1875 33.5625 84.3125 C33.748125 84.93125 33.93375 85.55 34.125 86.1875 C31.65 86.6825 31.65 86.6825 29.125 87.1875 C31.765 89.1675 34.405 91.1475 37.125 93.1875 C36.465 94.1775 35.805 95.1675 35.125 96.1875 C33.475 95.8575 31.825 95.5275 30.125 95.1875 C32.435 96.5075 34.745 97.8275 37.125 99.1875 C36.125 102.1875 36.125 102.1875 32.125 104.1875 C33.115 108.6425 33.115 108.6425 34.125 113.1875 C34.785 113.1875 35.445 113.1875 36.125 113.1875 C36.785 111.2075 37.445 109.2275 38.125 107.1875 C38.785 107.1875 39.445 107.1875 40.125 107.1875 C39.68679109 111.74487263 39.27458831 114.76403445 36.125 118.1875 C34.805 117.8575 33.485 117.5275 32.125 117.1875 C31.795 119.8275 31.465 122.4675 31.125 125.1875 C29.805 125.5175 28.485 125.8475 27.125 126.1875 C27.125 127.5075 27.125 128.8275 27.125 130.1875 C25.475 130.1875 23.825 130.1875 22.125 130.1875 C21.91875 130.80625 21.7125 131.425 21.5 132.0625 C19.49882144 135.1552305 17.68239772 135.29815057 14.125 136.1875 C13.38894531 136.373125 12.65289062 136.55875 11.89453125 136.75 C5.65628302 138.17815222 -0.48156167 138.68644346 -6.875 138.1875 C-7.205 137.8575 -7.535 137.5275 -7.875 137.1875 C-8.18953125 137.85136719 -8.5040625 138.51523438 -8.828125 139.19921875 C-12.2722748 146.3053712 -15.08882242 152.0696884 -22.53515625 155.453125 C-27.72200274 157.08105011 -33.03648997 157.29163643 -38.14453125 155.3046875 C-47.49647037 149.9045238 -52.39263672 140.66942232 -56.875 131.1875 C-56.875 130.5275 -56.875 129.8675 -56.875 129.1875 C-57.6175 129.950625 -58.36 130.71375 -59.125 131.5 C-64.88640684 137.13046578 -64.88640684 137.13046578 -69.125 137.375 C-70.0325 137.313125 -70.94 137.25125 -71.875 137.1875 C-72.37 136.1975 -72.37 136.1975 -72.875 135.1875 C-73.865 136.1775 -73.865 136.1775 -74.875 137.1875 C-78.38308074 136.8245951 -80.91506562 134.99233804 -83.875 133.1875 C-84.761875 132.8575 -85.64875 132.5275 -86.5625 132.1875 C-88.875 131.1875 -88.875 131.1875 -90.875 128.1875 C-91.865 127.8575 -92.855 127.5275 -93.875 127.1875 C-94.205 125.2075 -94.535 123.2275 -94.875 121.1875 C-95.535 121.1875 -96.195 121.1875 -96.875 121.1875 C-96.26801257 117.05998551 -94.83689209 113.8553852 -92.875 110.1875 C-95.845 111.1775 -95.845 111.1775 -98.875 112.1875 C-98.875 108.1875 -98.875 108.1875 -97.875 107.1875 C-98.535 106.8575 -99.195 106.5275 -99.875 106.1875 C-99.875 105.5275 -99.875 104.8675 -99.875 104.1875 C-101.195 103.8575 -102.515 103.5275 -103.875 103.1875 C-102.43471123 98.1464893 -99.89603775 96.28704993 -95.875 93.1875 C-94.885 92.1975 -94.885 92.1975 -93.875 91.1875 C-95.855 90.8575 -97.835 90.5275 -99.875 90.1875 C-99.5625 88.3125 -99.5625 88.3125 -98.875 86.1875 C-95.64708445 84.0355563 -94.59099191 83.98663557 -90.875 84.1875 C-90.895625 83.07375 -90.91625 81.96 -90.9375 80.8125 C-90.875 77.1875 -90.875 77.1875 -89.875 75.1875 C-88.555 75.1875 -87.235 75.1875 -85.875 75.1875 C-85.545 76.13625 -85.215 77.085 -84.875 78.0625 C-82.70216085 81.45756117 -82.35609578 81.67943978 -78.6875 82.5625 C-77.429375 82.76875 -76.17125 82.975 -74.875 83.1875 C-75.84803727 79.78186957 -76.87071507 77.1937935 -78.875 74.25 C-83.90607517 66.54616615 -83.82701076 57.4471293 -82.1875 48.625 C-80.89157531 43.53321079 -78.84679034 38.53025439 -75.875 34.1875 C-73.7109375 32.90234375 -73.7109375 32.90234375 -71.875 32.1875 C-72.10316406 31.5584375 -72.33132812 30.929375 -72.56640625 30.28125 C-74.73545942 23.82272396 -75.91458082 18.80541885 -73.046875 12.3125 C-67.14078032 1.43778599 -57.89587077 -4.29274152 -46.35546875 -8.1015625 C-31.20296617 -12.4444845 -12.26858634 -10.38111152 0 0 Z M-85.875 126.1875 C-84.875 129.1875 -84.875 129.1875 -84.875 129.1875 Z M-4.875 128.1875 C-5.865 129.6725 -5.865 129.6725 -6.875 131.1875 C-6.545 132.1775 -6.215 133.1675 -5.875 134.1875 C-5.215 133.1975 -4.555 132.2075 -3.875 131.1875 C-4.205 130.1975 -4.535 129.2075 -4.875 128.1875 Z " fill="#F5F5F5" transform="translate(131.875,21.8125)"/>
<path d="M0 0 C5.21487502 4.98453602 8.45723328 9.59320848 9.203125 17.0234375 C9.11138151 19.56473217 8.45959348 21.68671603 7.75 24.125 C7.0157695 27.29378425 6.77676555 28.57596633 8.40625 31.4375 C9.6653229 32.9313153 10.94092276 34.41131644 12.23046875 35.87890625 C19.24462788 44.42605686 19.05798358 55.57532394 18.36132812 66.09570312 C17.62735814 72.59224736 14.43821901 77.41215038 10.125 82.1875 C12.765 82.1875 15.405 82.1875 18.125 82.1875 C18.785 80.2075 19.445 78.2275 20.125 76.1875 C22.0625 76.5 22.0625 76.5 24.125 77.1875 C24.455 78.1775 24.785 79.1675 25.125 80.1875 C26.8265625 80.6515625 26.8265625 80.6515625 28.5625 81.125 C32.125 82.1875 32.125 82.1875 33.5625 84.3125 C33.748125 84.93125 33.93375 85.55 34.125 86.1875 C31.65 86.6825 31.65 86.6825 29.125 87.1875 C31.765 89.1675 34.405 91.1475 37.125 93.1875 C36.465 94.1775 35.805 95.1675 35.125 96.1875 C33.475 95.8575 31.825 95.5275 30.125 95.1875 C32.435 96.5075 34.745 97.8275 37.125 99.1875 C36.125 102.1875 36.125 102.1875 32.125 104.1875 C33.115 108.6425 33.115 108.6425 34.125 113.1875 C34.785 113.1875 35.445 113.1875 36.125 113.1875 C36.785 111.2075 37.445 109.2275 38.125 107.1875 C38.785 107.1875 39.445 107.1875 40.125 107.1875 C39.68679109 111.74487263 39.27458831 114.76403445 36.125 118.1875 C34.805 117.8575 33.485 117.5275 32.125 117.1875 C31.795 119.8275 31.465 122.4675 31.125 125.1875 C29.805 125.5175 28.485 125.8475 27.125 126.1875 C27.125 127.5075 27.125 128.8275 27.125 130.1875 C25.475 130.1875 23.825 130.1875 22.125 130.1875 C21.91875 130.80625 21.7125 131.425 21.5 132.0625 C19.49882144 135.1552305 17.68239772 135.29815057 14.125 136.1875 C13.38894531 136.373125 12.65289062 136.55875 11.89453125 136.75 C5.65628302 138.17815222 -0.48156167 138.68644346 -6.875 138.1875 C-7.205 137.8575 -7.535 137.5275 -7.875 137.1875 C-8.18953125 137.85136719 -8.5040625 138.51523438 -8.828125 139.19921875 C-12.2722748 146.3053712 -15.08882242 152.0696884 -22.53515625 155.453125 C-27.72200274 157.08105011 -33.03648997 157.29163643 -38.14453125 155.3046875 C-47.49647037 149.9045238 -52.39263672 140.66942232 -56.875 131.1875 C-56.875 130.5275 -56.875 129.8675 -56.875 129.1875 C-57.6175 129.950625 -58.36 130.71375 -59.125 131.5 C-64.88640684 137.13046578 -64.88640684 137.13046578 -69.125 137.375 C-70.0325 137.313125 -70.94 137.25125 -71.875 137.1875 C-72.37 136.1975 -72.37 136.1975 -72.875 135.1875 C-73.865 136.1775 -73.865 136.1775 -74.875 137.1875 C-78.38308074 136.8245951 -80.91506562 134.99233804 -83.875 133.1875 C-84.761875 132.8575 -85.64875 132.5275 -86.5625 132.1875 C-88.875 131.1875 -88.875 131.1875 -90.875 128.1875 C-91.865 127.8575 -92.855 127.5275 -93.875 127.1875 C-94.205 125.2075 -94.535 123.2275 -94.875 121.1875 C-95.535 121.1875 -96.195 121.1875 -96.875 121.1875 C-96.26801257 117.05998551 -94.83689209 113.8553852 -92.875 110.1875 C-95.845 111.1775 -95.845 111.1775 -98.875 112.1875 C-98.875 108.1875 -98.875 108.1875 -97.875 107.1875 C-98.535 106.8575 -99.195 106.5275 -99.875 106.1875 C-99.875 105.5275 -99.875 104.8675 -99.875 104.1875 C-101.195 103.8575 -102.515 103.5275 -103.875 103.1875 C-102.43471123 98.1464893 -99.89603775 96.28704993 -95.875 93.1875 C-94.885 92.1975 -94.885 92.1975 -93.875 91.1875 C-95.855 90.8575 -97.835 90.5275 -99.875 90.1875 C-99.5625 88.3125 -99.5625 88.3125 -98.875 86.1875 C-95.64708445 84.0355563 -94.59099191 83.98663557 -90.875 84.1875 C-90.895625 83.07375 -90.91625 81.96 -90.9375 80.8125 C-90.875 77.1875 -90.875 77.1875 -89.875 75.1875 C-88.555 75.1875 -87.235 75.1875 -85.875 75.1875 C-85.545 76.13625 -85.215 77.085 -84.875 78.0625 C-82.70216085 81.45756117 -82.35609578 81.67943978 -78.6875 82.5625 C-77.429375 82.76875 -76.17125 82.975 -74.875 83.1875 C-75.84803727 79.78186957 -76.87071507 77.1937935 -78.875 74.25 C-83.90607517 66.54616615 -83.82701076 57.4471293 -82.1875 48.625 C-80.89157531 43.53321079 -78.84679034 38.53025439 -75.875 34.1875 C-73.7109375 32.90234375 -73.7109375 32.90234375 -71.875 32.1875 C-72.10316406 31.5584375 -72.33132812 30.929375 -72.56640625 30.28125 C-74.73545942 23.82272396 -75.91458082 18.80541885 -73.046875 12.3125 C-67.14078032 1.43778599 -57.89587077 -4.29274152 -46.35546875 -8.1015625 C-31.20296617 -12.4444845 -12.26858634 -10.38111152 0 0 Z M-19.875 37.1875 C-22.39687871 39.82946817 -24.39359161 41.93402156 -25.703125 45.34375 C-26.875 47.1875 -26.875 47.1875 -29.2578125 47.796875 C-30.16273437 47.84328125 -31.06765625 47.8896875 -32 47.9375 C-33.36511719 48.02257812 -33.36511719 48.02257812 -34.7578125 48.109375 C-35.45648438 48.13515625 -36.15515625 48.1609375 -36.875 48.1875 C-37.0296875 47.07375 -37.0296875 47.07375 -37.1875 45.9375 C-37.95916702 42.8508319 -38.50270258 41.32256768 -40.875 39.1875 C-44.20094755 38.18515814 -44.20094755 38.18515814 -47.875 39.1875 C-52.90070031 43.16399356 -55.46279744 48.14184122 -57.78515625 53.97265625 C-59.00050974 56.44256818 -60.43530485 58.11862153 -62.3125 60.125 C-68.86530445 67.24148655 -71.64969582 74.56086677 -71.875 84.1875 C-73.83266281 84.26832094 -75.79126728 84.32660778 -77.75 84.375 C-79.38582031 84.42720703 -79.38582031 84.42720703 -81.0546875 84.48046875 C-81.98539063 84.38378906 -82.91609375 84.28710938 -83.875 84.1875 C-84.535 83.1975 -85.195 82.2075 -85.875 81.1875 C-86.535 81.1875 -87.195 81.1875 -87.875 81.1875 C-87.875 82.8375 -87.875 84.4875 -87.875 86.1875 C-90.185 86.1875 -92.495 86.1875 -94.875 86.1875 C-95.205 86.8475 -95.535 87.5075 -95.875 88.1875 C-94.92625 88.620625 -93.9775 89.05375 -93 89.5 C-89.875 91.1875 -89.875 91.1875 -87.875 94.1875 C-88.90625 94.084375 -89.9375 93.98125 -91 93.875 C-96.03223716 94.28082558 -97.33844709 95.73720448 -100.875 99.1875 C-97.92770463 100.34561388 -97.92770463 100.34561388 -94.875 100.1875 C-96.36 101.1775 -96.36 101.1775 -97.875 102.1875 C-97.875 102.8475 -97.875 103.5075 -97.875 104.1875 C-96.885 104.1875 -95.895 104.1875 -94.875 104.1875 C-94.875 105.1775 -94.875 106.1675 -94.875 107.1875 C-93.225 107.1875 -91.575 107.1875 -89.875 107.1875 C-91.36 112.1375 -91.36 112.1375 -92.875 117.1875 C-93.535 117.1875 -94.195 117.1875 -94.875 117.1875 C-94.875 117.8475 -94.875 118.5075 -94.875 119.1875 C-94.215 119.5175 -93.555 119.8475 -92.875 120.1875 C-92.25 122.25 -92.25 122.25 -91.875 124.1875 C-90.555 122.8675 -89.235 121.5475 -87.875 120.1875 C-88.37 121.1775 -88.37 121.1775 -88.875 122.1875 C-88.914992 124.18710012 -88.91846799 126.18797242 -88.875 128.1875 C-88.441875 127.548125 -88.00875 126.90875 -87.5625 126.25 C-85.875 124.1875 -85.875 124.1875 -82.875 123.1875 C-83.060625 124.13625 -83.24625 125.085 -83.4375 126.0625 C-84.16186632 129.08618793 -84.16186632 129.08618793 -82.875 131.1875 C-82.215 131.1875 -81.555 131.1875 -80.875 131.1875 C-80.38 129.7025 -80.38 129.7025 -79.875 128.1875 C-78.885 127.6925 -78.885 127.6925 -77.875 127.1875 C-77.875 129.4975 -77.875 131.8075 -77.875 134.1875 C-77.215 134.1875 -76.555 134.1875 -75.875 134.1875 C-75.215 132.5375 -74.555 130.8875 -73.875 129.1875 C-73.606875 129.991875 -73.33875 130.79625 -73.0625 131.625 C-72.670625 132.470625 -72.27875 133.31625 -71.875 134.1875 C-70.39 134.6825 -70.39 134.6825 -68.875 135.1875 C-68.545 134.5275 -68.215 133.8675 -67.875 133.1875 C-66.885 133.5175 -65.895 133.8475 -64.875 134.1875 C-64.875 133.5275 -64.875 132.8675 -64.875 132.1875 C-64.215 132.1875 -63.555 132.1875 -62.875 132.1875 C-63.205 130.8675 -63.535 129.5475 -63.875 128.1875 C-65.195 127.8575 -66.515 127.5275 -67.875 127.1875 C-67.545 124.5475 -67.215 121.9075 -66.875 119.1875 C-66.730625 120.321875 -66.58625 121.45625 -66.4375 122.625 C-66.26328522 125.99527201 -66.26328522 125.99527201 -64.875 127.1875 C-61.21155389 127.32318319 -58.36884279 127.35211426 -54.875 126.1875 C-54.74609375 126.77144531 -54.6171875 127.35539062 -54.484375 127.95703125 C-53.48147533 131.6279012 -51.63420336 134.82902086 -49.875 138.1875 C-49.50246094 138.94933594 -49.12992188 139.71117187 -48.74609375 140.49609375 C-45.69603654 146.46534762 -41.97244743 151.13877628 -35.875 154.1875 C-28.84576265 155.23723488 -24.47019634 153.97162798 -18.78515625 149.79296875 C-15.76450202 147.25413667 -13.64378141 145.14748484 -12.05078125 141.5 C-11.74462891 140.80132812 -11.43847656 140.10265625 -11.12304688 139.3828125 C-10.65995117 138.29613281 -10.65995117 138.29613281 -10.1875 137.1875 C-9.86716797 136.46304688 -9.54683594 135.73859375 -9.21679688 134.9921875 C-7.88612267 131.91659936 -6.875 129.57346407 -6.875 126.1875 C-5.225 125.8575 -3.575 125.5275 -1.875 125.1875 C-2.205 126.26 -2.535 127.3325 -2.875 128.4375 C-4.0467751 132.18481601 -4.0467751 132.18481601 -3.875 136.1875 C0.31368414 136.55983882 0.31368414 136.55983882 4 134.875 C5.4023501 133.10949528 5.4023501 133.10949528 5.125 130.1875 C6.115 130.1875 7.105 130.1875 8.125 130.1875 C8.125 131.8375 8.125 133.4875 8.125 135.1875 C9.115 134.5275 10.105 133.8675 11.125 133.1875 C12.445 133.1875 13.765 133.1875 15.125 133.1875 C16.115 131.7025 16.115 131.7025 17.125 130.1875 C17.785 130.8475 18.445 131.5075 19.125 132.1875 C19.785 129.8775 20.445 127.5675 21.125 125.1875 C22.61 125.6825 22.61 125.6825 24.125 126.1875 C24.455 124.2075 24.785 122.2275 25.125 120.1875 C26.445 120.8475 27.765 121.5075 29.125 122.1875 C29.33470559 118.04656302 29.33470559 118.04656302 28.125 114.1875 C27.465 114.1875 26.805 114.1875 26.125 114.1875 C26.125 113.1975 26.125 112.2075 26.125 111.1875 C29.095 112.1775 29.095 112.1775 32.125 113.1875 C31.23723998 109.48849992 30.17918136 105.84199539 29.125 102.1875 C31.6 101.6925 31.6 101.6925 34.125 101.1875 C34.125 100.5275 34.125 99.8675 34.125 99.1875 C33.320625 98.919375 32.51625 98.65125 31.6875 98.375 C30.841875 97.983125 29.99625 97.59125 29.125 97.1875 C28.795 96.1975 28.465 95.2075 28.125 94.1875 C30.6 93.6925 30.6 93.6925 33.125 93.1875 C32.465 92.1975 31.805 91.2075 31.125 90.1875 C29.14752878 89.82452064 29.14752878 89.82452064 27 90 C25.72125 90.061875 24.4425 90.12375 23.125 90.1875 C23.455 89.1975 23.785 88.2075 24.125 87.1875 C27.6875 86 27.6875 86 31.125 85.1875 C31.125 84.5275 31.125 83.8675 31.125 83.1875 C28.485 83.1875 25.845 83.1875 23.125 83.1875 C23.125 81.5375 23.125 79.8875 23.125 78.1875 C22.465 78.1875 21.805 78.1875 21.125 78.1875 C20.83625 78.826875 20.5475 79.46625 20.25 80.125 C19.125 82.1875 19.125 82.1875 17.125 83.1875 C10.59166667 83.42083333 10.59166667 83.42083333 8.125 82.1875 C7.83182623 80.36330768 7.61628488 78.52643024 7.4375 76.6875 C6.47789696 70.21791819 4.06675547 65.54593021 -0.875 61.1875 C-1.865 61.1875 -2.855 61.1875 -3.875 61.1875 C-3.98714844 60.29611328 -3.98714844 60.29611328 -4.1015625 59.38671875 C-5.32187523 51.69396304 -7.9908562 43.81426077 -13.8203125 38.37109375 C-16.05747474 36.85473207 -16.05747474 36.85473207 -19.875 37.1875 Z M-85.875 126.1875 C-84.875 129.1875 -84.875 129.1875 -84.875 129.1875 Z M-4.875 128.1875 C-5.865 129.6725 -5.865 129.6725 -6.875 131.1875 C-6.545 132.1775 -6.215 133.1675 -5.875 134.1875 C-5.215 133.1975 -4.555 132.2075 -3.875 131.1875 C-4.205 130.1975 -4.535 129.2075 -4.875 128.1875 Z " fill="#020305" transform="translate(131.875,21.8125)"/>
<path d="M0 0 C0.03738281 1.16917969 0.07476562 2.33835937 0.11328125 3.54296875 C0.1789628 5.09117675 0.24540939 6.63935242 0.3125 8.1875 C0.33505859 8.95642578 0.35761719 9.72535156 0.38085938 10.51757812 C0.59772226 15.11112831 1.06066101 18.25704862 4 22 C6.01669827 23.13350534 6.01669827 23.13350534 8 24 C8.66 24.99 9.32 25.98 10 27 C12.31317961 26.69257097 14.62553352 26.37892298 16.9375 26.0625 C18.22527344 25.88847656 19.51304688 25.71445313 20.83984375 25.53515625 C23.85466313 25.33837577 23.85466313 25.33837577 25 24 C25.23192865 22.48530552 25.41215238 20.96245438 25.5625 19.4375 C25.64628906 18.61121094 25.73007813 17.78492187 25.81640625 16.93359375 C25.90728516 15.97646484 25.90728516 15.97646484 26 15 C26.66 15 27.32 15 28 15 C28.66 17.97 29.32 20.94 30 24 C36.90527633 26.02419904 36.90527633 26.02419904 44 26 C46.87640616 23.62499209 46.87640616 23.62499209 49 21 C49.495 21.99 49.495 21.99 50 23 C55.29357141 16.17129288 57.8151508 9.31527903 60 1 C64.75 -0.125 64.75 -0.125 67 1 C69.9357489 5.69719825 69.82210823 10.65289939 69 16 C67.58609898 19.18428133 65.95236011 22.16097883 64.25 25.19921875 C62.9308429 28.15495512 62.79233482 29.39514255 63.4375 32.5 C63.623125 33.655 63.80875 34.81 64 36 C61.49501158 38.9470452 60.04728323 39.90690816 56.1875 40.25 C55.465625 40.1675 54.74375 40.085 54 40 C53.896875 40.67289063 53.79375 41.34578125 53.6875 42.0390625 C51.46244954 51.62195027 47.18113132 60.35173629 38.91796875 65.8984375 C34.32158861 68.53831367 30.24662962 68.58923686 25 68 C21.625 66.25 21.625 66.25 19 64 C18.29875 63.4225 17.5975 62.845 16.875 62.25 C14.76422491 59.71706989 13.47871099 57.19798474 12.08203125 54.2265625 C10.53775655 51.04881311 8.74238141 48.02543823 6.953125 44.98046875 C6 43 6 43 6 40 C4.515 40.495 4.515 40.495 3 41 C-0.625 41.125 -0.625 41.125 -4 41 C-6.09193875 38.90806125 -5.38135525 34.49822957 -5.5234375 31.6640625 C-6.07180516 28.59859737 -6.78015316 28.04488354 -9 26 C-12.06079856 20.07355447 -11.63856484 13.4920759 -11 7 C-8.87325402 1.3219895 -5.82924977 -0.15340131 0 0 Z " fill="#EFA41C" transform="translate(71,108)"/>
<path d="M0 0 C4.22342197 0.87987958 5.41237016 2.15212838 8 5.625 C14.18409543 15.97882752 13.71936405 31.35693542 11.19921875 42.8671875 C8.83358226 51.06927849 8.83358226 51.06927849 5 53.625 C4.566875 52.51125 4.13375 51.3975 3.6875 50.25 C2.30088881 46.44987666 2.30088881 46.44987666 -1 44.625 C-3.11056475 44.23440181 -3.11056475 44.23440181 -5.375 44.25 C-6.12523437 44.22164062 -6.87546875 44.19328125 -7.6484375 44.1640625 C-10.73539102 44.58078258 -10.73539102 44.58078258 -15 48.625 C-14.67 44.005 -14.34 39.385 -14 34.625 C-14.66 34.625 -15.32 34.625 -16 34.625 C-16.09087891 35.52992187 -16.09087891 35.52992187 -16.18359375 36.453125 C-16.26738281 37.25234375 -16.35117188 38.0515625 -16.4375 38.875 C-16.55931641 40.05835937 -16.55931641 40.05835937 -16.68359375 41.265625 C-17 43.625 -17 43.625 -17.5390625 45.5703125 C-18.32407017 49.06958398 -17.95933618 52.5984083 -17.83984375 56.1640625 C-18 58.625 -18 58.625 -20 60.625 C-22.36030696 61.08347689 -24.7398174 61.44643131 -27.125 61.75 C-28.40632813 61.91757813 -29.68765625 62.08515625 -31.0078125 62.2578125 C-31.99523437 62.37898438 -32.98265625 62.50015625 -34 62.625 C-34.433125 62.00625 -34.86625 61.3875 -35.3125 60.75 C-36.99740483 58.4052755 -36.99740483 58.4052755 -40 56.625 C-39.85691406 55.69494141 -39.85691406 55.69494141 -39.7109375 54.74609375 C-38.82209801 47.64571318 -39.46815427 41.3230247 -40.50390625 34.265625 C-41.9532489 23.62950417 -41.11205199 14.03627046 -34.75 5 C-31.71682665 2.3804412 -29.94086451 1.52964618 -25.9921875 1.3359375 C-22.36176489 1.8627047 -20.12546519 3.81091057 -18 6.625 C-15.75998389 10.82608682 -14.54996532 14.82463003 -15 19.625 C-14.34 19.625 -13.68 19.625 -13 19.625 C-12.80664062 19.03332031 -12.61328125 18.44164063 -12.4140625 17.83203125 C-11.87616802 16.19970791 -11.33161436 14.56956749 -10.78125 12.94140625 C-10.21343305 11.25782899 -9.66371777 9.568113 -9.125 7.875 C-7.01963394 3.66426788 -4.6821997 0.97545827 0 0 Z " fill="#C9DEEC" transform="translate(115,73.375)"/>
<path d="M0 0 C0 0.99 0 1.98 0 3 C0.66 3 1.32 3 2 3 C5.29230693 10.22389676 6.97343476 17.13867147 8 25 C7.31292969 25.25394531 6.62585938 25.50789063 5.91796875 25.76953125 C5.01691406 26.11371094 4.11585937 26.45789063 3.1875 26.8125 C2.29417969 27.14894531 1.40085938 27.48539063 0.48046875 27.83203125 C-1.91924072 28.96197319 -3.28423353 30.01062293 -5 32 C-4.32453125 31.6390625 -3.6490625 31.278125 -2.953125 30.90625 C-2.06109375 30.4421875 -1.1690625 29.978125 -0.25 29.5 C0.63171875 29.0359375 1.5134375 28.571875 2.421875 28.09375 C5 27 5 27 9 27 C8.67 31.29 8.34 35.58 8 40 C3.07915587 38.35971862 1.69074628 37.76805971 -2 35 C-6.70606518 32.90841548 -9.98330902 32.91796861 -15 34 C-15.33 34.33 -15.66 34.66 -16 35 C-15.05640625 34.89558594 -15.05640625 34.89558594 -14.09375 34.7890625 C-7.80605044 34.39134656 -4.41941397 35.37406854 0.50390625 39.296875 C2.22782001 41.25934602 2.84671664 42.38907341 3 45 C1.92578125 46.60546875 1.92578125 46.60546875 0.3125 48.1875 C-2.14514436 50.82552193 -3.61901862 53.08346843 -4.9375 56.4375 C-6.33298483 59.87969591 -7.90060394 62.22564559 -10.4375 64.9375 C-16.87749264 71.91646198 -19.67455197 79.70208097 -21 89 C-21.99 89 -22.98 89 -24 89 C-24.2475 87.96875 -24.495 86.9375 -24.75 85.875 C-25.54134953 83.06005665 -26.32032007 81.51951989 -28 79 C-33.08138641 71.37792038 -32.94167168 62.20399524 -31.3125 53.4375 C-30.01657531 48.34571079 -27.97179034 43.34275439 -25 39 C-22.8359375 37.71484375 -22.8359375 37.71484375 -21 37 C-21.22816406 36.3709375 -21.45632812 35.741875 -21.69140625 35.09375 C-23.86045942 28.63522396 -25.03958082 23.61791885 -22.171875 17.125 C-18.93270239 11.16080917 -15.2319883 6.80148713 -9.5 3.1875 C-8.09234375 2.28064453 -8.09234375 2.28064453 -6.65625 1.35546875 C-4 0 -4 0 0 0 Z " fill="#030305" transform="translate(81,17)"/>
<path d="M0 0 C0 4.46029721 -0.77648461 5.32244352 -3 9 C-3.79497722 11.41683709 -4.52195429 13.85686583 -5.1875 16.3125 C-5.53167969 17.56675781 -5.87585938 18.82101563 -6.23046875 20.11328125 C-6.61138672 21.54220703 -6.61138672 21.54220703 -7 23 C-4.03 24.65 -1.06 26.3 2 28 C2 28.66 2 29.32 2 30 C-1.63 29.01 -5.26 28.02 -9 27 C-8.979375 28.216875 -8.95875 29.43375 -8.9375 30.6875 C-8.93175884 33.91977322 -9.21233685 36.84934741 -10 40 C-7.50447516 39.21869929 -7.50447516 39.21869929 -5 38 C-4.67 37.01 -4.34 36.02 -4 35 C-0.3469252 31.63532585 2.40620161 30.65794546 7.375 30.375 C13.47705333 30.63131931 16.79663992 32.70758569 21 37 C21.6290625 37.64195313 22.258125 38.28390625 22.90625 38.9453125 C28.00233544 44.79717332 30.56807015 51.39813712 32 59 C31.67 59.99 31.34 60.98 31 62 C30 61 30 61 29.9375 58.4375 C29.958125 57.633125 29.97875 56.82875 30 56 C29.34 56 28.68 56 28 56 C27.86464844 55.45472656 27.72929687 54.90945312 27.58984375 54.34765625 C25.35241683 46.50996315 21.00809051 39.4451317 14 35 C9.55514334 33.65037989 6.10513839 33.43615388 1.9375 35.5625 C0.968125 36.366875 -0.00125 37.17125 -1 38 C-8.58261721 43.91263604 -13.26447624 46.38178525 -23 46 C-23.33 46.66 -23.66 47.32 -24 48 C-24.66 47.01 -25.32 46.02 -26 45 C-27.670625 44.814375 -27.670625 44.814375 -29.375 44.625 C-33.86459358 43.85093214 -34.42848734 42.60011773 -37 39 C-40.99232793 35.98974204 -43.87164321 35.66277707 -48.8125 35.8125 C-49.97394531 35.83957031 -51.13539062 35.86664063 -52.33203125 35.89453125 C-53.21246094 35.92933594 -54.09289063 35.96414062 -55 36 C-51.27125909 33.0153896 -48.87593209 32.07993331 -44 32 C-38.9855941 33.60839434 -34.43028722 36.18072631 -30 39 C-29.34 39.33 -28.68 39.66 -28 40 C-28.01160156 39.22914062 -28.02320312 38.45828125 -28.03515625 37.6640625 C-28.04417969 36.66117188 -28.05320312 35.65828125 -28.0625 34.625 C-28.07410156 33.62726562 -28.08570312 32.62953125 -28.09765625 31.6015625 C-28 29 -28 29 -27 27 C-28.01320313 27.41572266 -28.01320313 27.41572266 -29.046875 27.83984375 C-29.93890625 28.20207031 -30.8309375 28.56429687 -31.75 28.9375 C-32.63171875 29.29714844 -33.5134375 29.65679687 -34.421875 30.02734375 C-36.61186104 30.85356576 -38.71898271 31.49369943 -41 32 C-40 29 -40 29 -38.0390625 27.83203125 C-37.24242188 27.49558594 -36.44578125 27.15914062 -35.625 26.8125 C-34.83351563 26.46832031 -34.04203125 26.12414062 -33.2265625 25.76953125 C-31 25 -31 25 -28 25 C-28.78657339 22.08187276 -29.57903279 19.16556527 -30.375 16.25 C-30.59671875 15.425 -30.8184375 14.6 -31.046875 13.75 C-31.26601562 12.95078125 -31.48515625 12.1515625 -31.7109375 11.328125 C-31.90993652 10.5949707 -32.10893555 9.86181641 -32.31396484 9.10644531 C-32.95109288 6.95587405 -32.95109288 6.95587405 -34.08056641 4.91699219 C-35 3 -35 3 -35 0 C-23.80350169 -3.25716314 -11.19649831 -3.25716314 0 0 Z " fill="#213297" transform="translate(117,17)"/>
<path d="M0 0 C0.99 0.33 1.98 0.66 3 1 C3.3125 3.25 3.3125 3.25 3 6 C0.43025001 8.71659284 -1.05344589 9.91586186 -4.8125 10.25 C-5.534375 10.1675 -6.25625 10.085 -7 10 C-7.103125 10.67289063 -7.20625 11.34578125 -7.3125 12.0390625 C-9.53755046 21.62195027 -13.81886868 30.35173629 -22.08203125 35.8984375 C-26.67841139 38.53831367 -30.75337038 38.58923686 -36 38 C-39.375 36.25 -39.375 36.25 -42 34 C-43.051875 33.13375 -43.051875 33.13375 -44.125 32.25 C-46.23675329 29.71589606 -47.52273945 27.19655137 -48.91796875 24.22265625 C-50.45187557 21.07177906 -52.25097432 18.08571771 -54.046875 15.078125 C-55 13 -55 13 -55 9 C-53.62708132 8.51490207 -52.25153297 8.03724487 -50.875 7.5625 C-50.10929687 7.29566406 -49.34359375 7.02882812 -48.5546875 6.75390625 C-42.40282277 4.9384477 -36.42378497 4.81720161 -30.0625 4.8125 C-29.19431641 4.80025391 -28.32613281 4.78800781 -27.43164062 4.77539062 C-22.21982764 4.76357245 -18.01971029 5.47252253 -13 7 C-9.72294954 7.23846114 -9.72294954 7.23846114 -6.5625 7.125 C-4.98662109 7.09792969 -4.98662109 7.09792969 -3.37890625 7.0703125 C-2.59386719 7.04710937 -1.80882812 7.02390625 -1 7 C-0.25042843 3.52852158 -0.25042843 3.52852158 0 0 Z " fill="#B94323" transform="translate(132,138)"/>
<path d="M0 0 C1.32 0 2.64 0 4 0 C4.33 0.94875 4.66 1.8975 5 2.875 C7.17283915 6.27006117 7.51890422 6.49193978 11.1875 7.375 C12.445625 7.58125 13.70375 7.7875 15 8 C15 8.66 15 9.32 15 10 C6.80743982 10.63019694 6.80743982 10.63019694 3.4375 8 C2.963125 7.34 2.48875 6.68 2 6 C2 7.65 2 9.3 2 11 C-0.31 11.33 -2.62 11.66 -5 12 C-3.5459375 12.8971875 -3.5459375 12.8971875 -2.0625 13.8125 C1 16 1 16 2 19 C1.07767578 19.16435547 1.07767578 19.16435547 0.13671875 19.33203125 C-0.67152344 19.49058594 -1.47976562 19.64914063 -2.3125 19.8125 C-3.11300781 19.96332031 -3.91351563 20.11414063 -4.73828125 20.26953125 C-7.23445587 21.07572236 -8.32422106 22.02052002 -10 24 C-6.535 23.505 -6.535 23.505 -3 23 C-4.65 24.98 -6.3 26.96 -8 29 C-7.01 29 -6.02 29 -5 29 C-5 29.99 -5 30.98 -5 32 C-3.02 31.67 -1.04 31.34 1 31 C-0.32 34.63 -1.64 38.26 -3 42 C-3.66 42 -4.32 42 -5 42 C-5 42.66 -5 43.32 -5 44 C-4.01 44.33 -3.02 44.66 -2 45 C-1.67 45.33 -1.34 45.66 -1 46 C0.485 45.505 0.485 45.505 2 45 C2 46.98 2 48.96 2 51 C2.66 50.01 3.32 49.02 4 48 C4.99 48 5.98 48 7 48 C7 50.64 7 53.28 7 56 C7.66 56 8.32 56 9 56 C9.33 54.68 9.66 53.36 10 52 C10.66 52 11.32 52 12 52 C12 54.31 12 56.62 12 59 C12.66 59 13.32 59 14 59 C14.12375 58.195625 14.2475 57.39125 14.375 56.5625 C14.684375 55.2940625 14.684375 55.2940625 15 54 C15.99 53.505 15.99 53.505 17 53 C17.28875 53.969375 17.5775 54.93875 17.875 55.9375 C18.64214682 59.10664203 18.64214682 59.10664203 21 60 C21.33 59.01 21.66 58.02 22 57 C22.99 57.66 23.98 58.32 25 59 C25 58.34 25 57.68 25 57 C25.66 57 26.32 57 27 57 C26.67 56.01 26.34 55.02 26 54 C25.34 53.71125 24.68 53.4225 24 53.125 C22 52 22 52 21.125 49.625 C20.98738679 46.73512258 21.47805175 45.41721193 23 43 C23.33 43 23.66 43 24 43 C24.495 46.96 24.495 46.96 25 51 C28.3 51 31.6 51 35 51 C35.37511719 51.76183594 35.75023437 52.52367187 36.13671875 53.30859375 C37.74190966 56.54727868 39.36799367 59.77475234 41 63 C41.42925781 63.86625 41.85851562 64.7325 42.30078125 65.625 C45.19915985 71.2140558 48.23111266 75.11555633 54 78 C60.9428793 79.03683831 65.3907295 77.80360741 71.08984375 73.80078125 C75.42074399 69.71786712 77.38610833 64.06382001 79.6875 58.6875 C80.00783203 57.94693359 80.32816406 57.20636719 80.65820312 56.44335938 C81.44193174 54.63025587 82.2213998 52.81531171 83 51 C82.34 50.67 81.68 50.34 81 50 C83.31 50 85.62 50 88 50 C87 57.42857143 87 57.42857143 86 61 C89.45411499 60.29920746 89.45411499 60.29920746 93 59 C94.20882096 56.99983534 94.20882096 56.99983534 95 55 C97.125 54.25 97.125 54.25 99 54 C99 55.65 99 57.3 99 59 C99.99 58.34 100.98 57.68 102 57 C102 57.66 102 58.32 102 59 C104.33524782 56.74259377 106.18705073 54.7194239 108 52 C108.495 53.98 108.495 53.98 109 56 C109.33 53.36 109.66 50.72 110 48 C111.32 48.99 112.64 49.98 114 51 C114 49.02 114 47.04 114 45 C114.99 45 115.98 45 117 45 C117.33 45.33 117.66 45.66 118 46 C118 43.69 118 41.38 118 39 C117.34 39 116.68 39 116 39 C116 38.01 116 37.02 116 36 C117.65 36.33 119.3 36.66 121 37 C120.67 36.278125 120.34 35.55625 120 34.8125 C118.99396471 31.98302573 118.83022598 29.97104534 119 27 C120.65 26.67 122.3 26.34 124 26 C124 25.34 124 24.68 124 24 C122.824375 23.87625 122.824375 23.87625 121.625 23.75 C119 23 119 23 117.6875 20.9375 C117.3471875 19.9784375 117.3471875 19.9784375 117 19 C119.475 18.01 119.475 18.01 122 17 C120.50256881 15.50256881 119.01175761 15.66797307 116.9375 15.4375 C115.638125 15.293125 114.33875 15.14875 113 15 C113.33 13.68 113.66 12.36 114 11 C117.465 10.505 117.465 10.505 121 10 C121 9.34 121 8.68 121 8 C116.545 8.495 116.545 8.495 112 9 C112.33 7.02 112.66 5.04 113 3 C112.34 3 111.68 3 111 3 C110.71125 3.804375 110.4225 4.60875 110.125 5.4375 C109 8 109 8 107 9 C103.5 9.1875 103.5 9.1875 100 9 C99.01 8.01 99.01 8.01 98 7 C101.2830098 5.3584951 104.42545033 6.48111376 108 7 C108.66 5.02 109.32 3.04 110 1 C111.9375 1.3125 111.9375 1.3125 114 2 C114.33 2.99 114.66 3.98 115 5 C116.134375 5.309375 117.26875 5.61875 118.4375 5.9375 C122 7 122 7 123.4375 9.125 C123.623125 9.74375 123.80875 10.3625 124 11 C122.35 11.33 120.7 11.66 119 12 C121.64 13.98 124.28 15.96 127 18 C126.01 19.485 126.01 19.485 125 21 C123.35 20.67 121.7 20.34 120 20 C122.31 21.32 124.62 22.64 127 24 C126 27 126 27 122 29 C122.99 33.455 122.99 33.455 124 38 C124.66 38 125.32 38 126 38 C126.99 35.03 126.99 35.03 128 32 C128.66 32 129.32 32 130 32 C129.56179109 36.55737263 129.14958831 39.57653445 126 43 C124.68 42.67 123.36 42.34 122 42 C121.67 44.64 121.34 47.28 121 50 C119.68 50.33 118.36 50.66 117 51 C117 52.32 117 53.64 117 55 C115.35 55 113.7 55 112 55 C111.79375 55.61875 111.5875 56.2375 111.375 56.875 C109.37382144 59.9677305 107.55739772 60.11065057 104 61 C103.26394531 61.185625 102.52789062 61.37125 101.76953125 61.5625 C95.53128302 62.99065222 89.39343833 63.49894346 83 63 C82.67 62.67 82.34 62.34 82 62 C81.52820313 62.99580078 81.52820313 62.99580078 81.046875 64.01171875 C77.6027252 71.1178712 74.78617758 76.8821884 67.33984375 80.265625 C62.15299726 81.89355011 56.83851003 82.10413643 51.73046875 80.1171875 C42.37852963 74.7170238 37.48236328 65.48192232 33 56 C33 55.34 33 54.68 33 54 C32.2575 54.763125 31.515 55.52625 30.75 56.3125 C24.98859316 61.94296578 24.98859316 61.94296578 20.75 62.1875 C19.38875 62.0946875 19.38875 62.0946875 18 62 C17.67 61.34 17.34 60.68 17 60 C16.34 60.66 15.68 61.32 15 62 C11.49191926 61.6370951 8.95993438 59.80483804 6 58 C5.113125 57.67 4.22625 57.34 3.3125 57 C1 56 1 56 -1 53 C-1.99 52.67 -2.98 52.34 -4 52 C-4.33 50.02 -4.66 48.04 -5 46 C-5.66 46 -6.32 46 -7 46 C-6.39301257 41.87248551 -4.96189209 38.6678852 -3 35 C-4.98 35.66 -6.96 36.32 -9 37 C-9 33 -9 33 -8 32 C-8.66 31.67 -9.32 31.34 -10 31 C-10 30.34 -10 29.68 -10 29 C-11.32 28.67 -12.64 28.34 -14 28 C-12.55971123 22.9589893 -10.02103775 21.09954993 -6 18 C-5.34 17.34 -4.68 16.68 -4 16 C-6.97 15.505 -6.97 15.505 -10 15 C-9.6875 13.125 -9.6875 13.125 -9 11 C-5.77208445 8.8480563 -4.71599191 8.79913557 -1 9 C-1.020625 7.88625 -1.04125 6.7725 -1.0625 5.625 C-1 2 -1 2 0 0 Z M4 51 C5 54 5 54 5 54 Z M85 53 C84.01 54.485 84.01 54.485 83 56 C83.33 56.99 83.66 57.98 84 59 C84.66 58.01 85.32 57.02 86 56 C85.67 55.01 85.34 54.02 85 53 Z " fill="#383633" transform="translate(42,97)"/>
<path d="M0 0 C0 4.46029721 -0.77648461 5.32244352 -3 9 C-3.79497722 11.41683709 -4.52195429 13.85686583 -5.1875 16.3125 C-5.785625 18.519375 -6.38375 20.72625 -7 23 C-14.26 23 -21.52 23 -29 23 C-30.875 15.25 -30.875 15.25 -31.45263672 12.82910156 C-32.32379512 9.28918462 -33.31533302 6.24791651 -35 3 C-35 2.01 -35 1.02 -35 0 C-23.80350169 -3.25716314 -11.19649831 -3.25716314 0 0 Z " fill="#213398" transform="translate(117,17)"/>
<path d="M0 0 C0.66 0 1.32 0 2 0 C2.66 2.31 3.32 4.62 4 7 C4.33 5.02 4.66 3.04 5 1 C8 2 8 2 9.625 5.25 C11.64107684 10.74839139 12.11498737 15.13564436 12 21 C11.01 21 10.02 21 9 21 C9 21.66 9 22.32 9 23 C8.01 23.66 7.02 24.32 6 25 C4.97176744 27.79880099 4.97176744 27.79880099 4.1875 31.0625 C2.46402958 37.0121048 0.38265987 42.48586033 -4 47 C-5.32570175 47.36249657 -6.65960265 47.69631623 -8 48 C-8.680625 48.77923828 -8.680625 48.77923828 -9.375 49.57421875 C-11 51 -11 51 -13.8125 51.14453125 C-14.864375 51.03496094 -15.91625 50.92539063 -17 50.8125 C-18.5778125 50.66748047 -18.5778125 50.66748047 -20.1875 50.51953125 C-23 50 -23 50 -26 48 C-26.51171875 45.8359375 -26.51171875 45.8359375 -26.6875 43.375 C-26.75324219 42.55773437 -26.81898437 41.74046875 -26.88671875 40.8984375 C-26.92410156 40.27195313 -26.96148437 39.64546875 -27 39 C-27.66 39 -28.32 39 -29 39 C-30.36722938 35.30848068 -29.5123038 33.52870887 -28 30 C-27.62406934 28.0075675 -27.28020455 26.0081326 -27 24 C-26.34 24 -25.68 24 -25 24 C-25 28.29 -25 32.58 -25 37 C-23.68 35.68 -22.36 34.36 -21 33 C-16.60786838 31.93143131 -12.95122732 32.45355026 -9.0625 34.6875 C-6.94228842 37.06470692 -5.92570369 38.97042428 -5 42 C0.72697052 33.40954422 0.38885184 23.27167162 0.1875 13.3125 C0.17396484 12.02666016 0.16042969 10.74082031 0.14648438 9.41601562 C0.11147556 6.27689145 0.06237058 3.13867939 0 0 Z " fill="#F8F7F7" transform="translate(126,84)"/>
<path d="M0 0 C1.9375 0.3125 1.9375 0.3125 4 1 C4.495 2.485 4.495 2.485 5 4 C6.7015625 4.4640625 6.7015625 4.4640625 8.4375 4.9375 C12 6 12 6 13.4375 8.125 C13.623125 8.74375 13.80875 9.3625 14 10 C12.35 10.33 10.7 10.66 9 11 C11.64 12.98 14.28 14.96 17 17 C16.34 17.99 15.68 18.98 15 20 C13.35 19.67 11.7 19.34 10 19 C12.31 20.32 14.62 21.64 17 23 C16 26 16 26 12 28 C12.66 30.97 13.32 33.94 14 37 C14.66 37 15.32 37 16 37 C16.66 35.02 17.32 33.04 18 31 C18.66 31 19.32 31 20 31 C19.56179109 35.55737263 19.14958831 38.57653445 16 42 C14.68 41.67 13.36 41.34 12 41 C11.67 43.64 11.34 46.28 11 49 C9.02 49.495 9.02 49.495 7 50 C7 51.32 7 52.64 7 54 C5.35 54 3.7 54 2 54 C1.690625 54.928125 1.690625 54.928125 1.375 55.875 C-0.62617856 58.9677305 -2.44260228 59.11065057 -6 60 C-7.10408203 60.2784375 -7.10408203 60.2784375 -8.23046875 60.5625 C-14.53748828 62.00639636 -20.54806651 62.2207886 -27 62 C-27.33 61.34 -27.66 60.68 -28 60 C-27.01 60 -26.02 60 -25 60 C-25.226875 59.46375 -25.45375 58.9275 -25.6875 58.375 C-26.13958145 54.93918099 -24.67178015 52.94233306 -23 50 C-21.53273202 53.81489674 -22.56663581 56.29011622 -24 60 C-20.54588501 59.29920746 -20.54588501 59.29920746 -17 58 C-15.79117904 55.99983534 -15.79117904 55.99983534 -15 54 C-12.875 53.25 -12.875 53.25 -11 53 C-11 54.65 -11 56.3 -11 58 C-10.01 57.34 -9.02 56.68 -8 56 C-8 56.66 -8 57.32 -8 58 C-5.66475218 55.74259377 -3.81294927 53.7194239 -2 51 C-1.67 52.32 -1.34 53.64 -1 55 C-0.67 52.36 -0.34 49.72 0 47 C1.32 47.99 2.64 48.98 4 50 C4 48.02 4 46.04 4 44 C4.99 44 5.98 44 7 44 C7.33 44.33 7.66 44.66 8 45 C8 42.69 8 40.38 8 38 C7.34 38 6.68 38 6 38 C6 37.01 6 36.02 6 35 C7.65 35.33 9.3 35.66 11 36 C10.67 35.278125 10.34 34.55625 10 33.8125 C8.99396471 30.98302573 8.83022598 28.97104534 9 26 C10.65 25.67 12.3 25.34 14 25 C14 24.34 14 23.68 14 23 C13.21625 22.9175 12.4325 22.835 11.625 22.75 C9 22 9 22 7.6875 19.9375 C7.460625 19.298125 7.23375 18.65875 7 18 C8.65 17.34 10.3 16.68 12 16 C10.50256881 14.50256881 9.01175761 14.66797307 6.9375 14.4375 C5.638125 14.293125 4.33875 14.14875 3 14 C3.33 12.68 3.66 11.36 4 10 C7.465 9.505 7.465 9.505 11 9 C11 8.34 11 7.68 11 7 C6.545 7.495 6.545 7.495 2 8 C2.33 6.02 2.66 4.04 3 2 C2.34 2 1.68 2 1 2 C0.566875 3.2065625 0.566875 3.2065625 0.125 4.4375 C-1 7 -1 7 -3 8 C-6.5 8.1875 -6.5 8.1875 -10 8 C-10.66 7.34 -11.32 6.68 -12 6 C-8.7169902 4.3584951 -5.57454967 5.48111376 -2 6 C-1.34 4.02 -0.68 2.04 0 0 Z " fill="#3C352A" transform="translate(152,98)"/>
<path d="M0 0 C1.98 0 3.96 0 6 0 C6.53109375 1.19238281 7.0621875 2.38476562 7.609375 3.61328125 C8.32234831 5.17994628 9.03592148 6.74633841 9.75 8.3125 C10.09804687 9.09818359 10.44609375 9.88386719 10.8046875 10.69335938 C13.26049023 16.3466812 13.26049023 16.3466812 18 20 C23.30469712 20.87560338 28.29956488 21.04920465 32.9375 18.1875 C35.8530644 13.68162774 37.90680612 8.92818629 40 4 C40.65501646 2.66090491 41.31716929 1.32512809 42 0 C43.98 0 45.96 0 48 0 C46.6356188 8.9025873 42.39612229 18.78511518 35.1875 24.375 C29.7155422 28.04808699 25.585688 28.73962342 19 28 C15.625 26.25 15.625 26.25 13 24 C11.948125 23.13375 11.948125 23.13375 10.875 22.25 C8.76422491 19.71706989 7.47871099 17.19798474 6.08203125 14.2265625 C4.53775655 11.04881311 2.74238141 8.02543823 0.953125 4.98046875 C0 3 0 3 0 0 Z " fill="#E99E17" transform="translate(77,148)"/>
<path d="M0 0 C4.19450072 1.39816691 5.49401493 3.89210237 7.80078125 7.54296875 C12.84287949 17.87352182 10.52026721 32.58587618 7 43 C2.545 41.02 2.545 41.02 -2 39 C-1.01 38.505 -1.01 38.505 0 38 C0 37.01 0 36.02 0 35 C0.928125 34.8453125 0.928125 34.8453125 1.875 34.6875 C4.36526484 34.12474627 4.36526484 34.12474627 6 31 C6.16713569 28.37468476 6.16713569 28.37468476 6 26 C4.02 25.01 2.04 24.02 0 23 C0 20.36 0 17.72 0 15 C0.99 15 1.98 15 3 15 C0.87391821 13.17274994 0.87391821 13.17274994 -2 12 C-5.2003264 13.22504725 -5.2003264 13.22504725 -8 15 C-8.66 15 -9.32 15 -10 15 C-9.775565 9.50134251 -8.50622602 6.36093848 -4.67578125 2.34765625 C-3 1 -3 1 0 0 Z " fill="#CCE2F1" transform="translate(88,76)"/>
<path d="M0 0 C3.23607212 1.49400542 5.51727167 3.4646715 8 6 C8.6290625 6.64195313 9.258125 7.28390625 9.90625 7.9453125 C15.00233544 13.79717332 17.56807015 20.39813712 19 28 C18.505 29.485 18.505 29.485 18 31 C17 30 17 30 16.9375 27.4375 C16.958125 26.633125 16.97875 25.82875 17 25 C16.34 25 15.68 25 15 25 C14.86464844 24.45472656 14.72929687 23.90945312 14.58984375 23.34765625 C12.35241683 15.50996315 8.00809051 8.4451317 1 4 C-3.44485666 2.65037989 -6.89486161 2.43615388 -11.0625 4.5625 C-12.031875 5.366875 -13.00125 6.17125 -14 7 C-21.58261721 12.91263604 -26.26447624 15.38178525 -36 15 C-36.33 15.66 -36.66 16.32 -37 17 C-37.66 16.01 -38.32 15.02 -39 14 C-40.11375 13.87625 -41.2275 13.7525 -42.375 13.625 C-46.86459358 12.85093214 -47.42848734 11.60011773 -50 8 C-53.99232793 4.98974204 -56.87164321 4.66277707 -61.8125 4.8125 C-62.97394531 4.83957031 -64.13539062 4.86664063 -65.33203125 4.89453125 C-66.21246094 4.92933594 -67.09289062 4.96414062 -68 5 C-64.27125909 2.0153896 -61.87593209 1.07993331 -57 1 C-50.8188743 2.98262522 -45.36849206 6.42100529 -40 10 C-37.19726783 10.31825732 -37.19726783 10.31825732 -34.125 10.25 C-33.09632812 10.25515625 -32.06765625 10.2603125 -31.0078125 10.265625 C-27.94188834 9.99486806 -25.79211338 9.24622437 -23 8 C-21.34080104 7.63128912 -19.6752357 7.28718326 -18 7 C-17.67 6.01 -17.34 5.02 -17 4 C-11.9399208 -0.66059926 -6.70165844 -1.23150134 0 0 Z " fill="#1B297D" transform="translate(130,48)"/>
<path d="M0 0 C2.75027316 0.56551475 3.91254892 1.03381568 5.828125 3.04296875 C8.11157025 7.45238027 8.21155926 9.64924656 7.640625 14.54296875 C4.88387948 17.29971427 2.58417102 17.34139816 -1.234375 17.98046875 C-2.46929687 18.20605469 -3.70421875 18.43164062 -4.9765625 18.6640625 C-8.359375 18.54296875 -8.359375 18.54296875 -10.7734375 16.328125 C-12.96272707 12.48338741 -13.16523347 9.84088059 -12.359375 5.54296875 C-9.82300982 -0.25443738 -5.77196811 -0.28551179 0 0 Z " fill="#F8F8F8" transform="translate(89.359375,117.45703125)"/>
<path d="M0 0 C0.886875 0.103125 1.77375 0.20625 2.6875 0.3125 C3.1825 1.3025 3.1825 1.3025 3.6875 2.3125 C2.0478125 2.7146875 2.0478125 2.7146875 0.375 3.125 C-3.8291115 4.47886641 -5.36448032 5.53736871 -7.41894531 9.38427734 C-10.04953668 15.85235953 -11.27720252 22.01764338 -12.0625 28.9375 C-12.18753906 29.94167969 -12.31257813 30.94585937 -12.44140625 31.98046875 C-12.74384978 34.42328187 -13.03398876 36.86686332 -13.3125 39.3125 C-13.6425 39.3125 -13.9725 39.3125 -14.3125 39.3125 C-14.3125 37.6625 -14.3125 36.0125 -14.3125 34.3125 C-14.9725 34.3125 -15.6325 34.3125 -16.3125 34.3125 C-16.40337891 35.16521484 -16.40337891 35.16521484 -16.49609375 36.03515625 C-17.01426573 40.81031037 -17.60493859 45.5617305 -18.3125 50.3125 C-20.7875 47.8375 -20.7875 47.8375 -23.3125 45.3125 C-22.3225 44.6525 -21.3325 43.9925 -20.3125 43.3125 C-18.35977525 37.45432576 -18.11214131 31.80926685 -18.0625 25.6875 C-18.05323486 24.97134521 -18.04396973 24.25519043 -18.03442383 23.51733398 C-18.07659409 16.34094759 -19.45873678 9.84039701 -24.3125 4.3125 C-27.26838047 3.3123077 -27.26838047 3.3123077 -30.3125 4.3125 C-36.1567327 9.18269392 -37.41949712 16.18465677 -39.3125 23.3125 C-39.6425 23.3125 -39.9725 23.3125 -40.3125 23.3125 C-40.94895511 15.99326623 -38.69080331 9.79501556 -34.5625 3.75 C-31.23839608 1.62626694 -28.25202214 0.88742632 -24.3125 1.3125 C-19.45102988 4.15600139 -17.48921704 7.065093 -15.76953125 12.375 C-15.21205568 14.73831523 -15.08596065 16.89608026 -15.3125 19.3125 C-14.6525 19.3125 -13.9925 19.3125 -13.3125 19.3125 C-13.11914062 18.72082031 -12.92578125 18.12914063 -12.7265625 17.51953125 C-12.18866802 15.88720791 -11.64411436 14.25706749 -11.09375 12.62890625 C-10.52593305 10.94532899 -9.97621777 9.255613 -9.4375 7.5625 C-7.24351475 3.17452951 -4.99231404 0.47097302 0 0 Z " fill="#ADB2B6" transform="translate(115.3125,73.6875)"/>
<path d="M0 0 C2.9375 0.1875 2.9375 0.1875 6 1 C9.05534629 5.61398579 8.85703466 10.70429331 8 16 C6.27985069 20.94510495 3.87244848 25.63289418 1 30 C0.01 30.33 -0.98 30.66 -2 31 C-4 28 -4 28 -3.75 25.5625 C-3 23 -3 23 -1.9375 21.0625 C-0.6880819 18.31378018 -0.86448443 15.98134247 -1 13 C-1.66 13 -2.32 13 -3 13 C-3.28875 13.804375 -3.5775 14.60875 -3.875 15.4375 C-5 18 -5 18 -7 19 C-6.71253906 18.31421875 -6.42507812 17.6284375 -6.12890625 16.921875 C-4.46409818 12.61296 -3.21721345 8.19152603 -1.90234375 3.765625 C-1 1 -1 1 0 0 Z " fill="#E29D21" transform="translate(132,108)"/>
<path d="M0 0 C3.1875 1.9375 3.1875 1.9375 6 4 C5.67 4.66 5.34 5.32 5 6 C4.34 5.67 3.68 5.34 3 5 C2.67 7.31 2.34 9.62 2 12 C2.78375 12.12375 3.5675 12.2475 4.375 12.375 C7 13 7 13 9 15 C9.39986582 18.03898022 9.21548894 19.60134547 7.75 22.3125 C6 24 6 24 2 24 C2 24.66 2 25.32 2 26 C1.34 26 0.68 26 0 26 C0 21.38 0 16.76 0 12 C-1.32 11.67 -2.64 11.34 -4 11 C-6 9 -6 9 -6.3125 6.5625 C-6 4 -6 4 -4.6875 2.25 C-3 1 -3 1 0 0 Z " fill="#3B3F42" transform="translate(86,87)"/>
<path d="M0 0 C1.32 0 2.64 0 4 0 C4.33 0.94875 4.66 1.8975 5 2.875 C7.17283915 6.27006117 7.51890422 6.49193978 11.1875 7.375 C12.445625 7.58125 13.70375 7.7875 15 8 C15 8.66 15 9.32 15 10 C6.80743982 10.63019694 6.80743982 10.63019694 3.4375 8 C2.963125 7.34 2.48875 6.68 2 6 C2 7.65 2 9.3 2 11 C-0.31 11.33 -2.62 11.66 -5 12 C-3.5459375 12.8971875 -3.5459375 12.8971875 -2.0625 13.8125 C1 16 1 16 2 19 C1.39671875 19.08636719 0.7934375 19.17273438 0.171875 19.26171875 C-5.28282267 20.21039289 -5.28282267 20.21039289 -9.5625 23.625 C-10.036875 24.40875 -10.51125 25.1925 -11 26 C-10.34 27.32 -9.68 28.64 -9 30 C-8.01 30 -7.02 30 -6 30 C-6 31.98 -6 33.96 -6 36 C-7.32 36 -8.64 36 -10 36 C-9.34 34.68 -8.68 33.36 -8 32 C-8.66 31.67 -9.32 31.34 -10 31 C-10 30.34 -10 29.68 -10 29 C-11.32 28.67 -12.64 28.34 -14 28 C-12.55971123 22.9589893 -10.02103775 21.09954993 -6 18 C-5.34 17.34 -4.68 16.68 -4 16 C-6.97 15.505 -6.97 15.505 -10 15 C-9.6875 13.125 -9.6875 13.125 -9 11 C-5.77208445 8.8480563 -4.71599191 8.79913557 -1 9 C-1.020625 7.88625 -1.04125 6.7725 -1.0625 5.625 C-1 2 -1 2 0 0 Z " fill="#252424" transform="translate(42,97)"/>
<path d="M0 0 C0 0.66 0 1.32 0 2 C-0.99 2 -1.98 2 -3 2 C-3 4.64 -3 7.28 -3 10 C-0.525 10.99 -0.525 10.99 2 12 C1.25 18.75 1.25 18.75 -1 21 C-1.99 21 -2.98 21 -4 21 C-4.33 21.66 -4.66 22.32 -5 23 C-7.4375 21.8125 -7.4375 21.8125 -10 20 C-10.8125 17.3125 -10.8125 17.3125 -11 15 C-10.566875 15.474375 -10.13375 15.94875 -9.6875 16.4375 C-7.97690387 18.23686957 -7.97690387 18.23686957 -5 19 C-5.40638309 13.00584936 -6.18186051 10.7090387 -10 6 C-10.0625 3.3125 -10.0625 3.3125 -9 1 C-5.71803757 -0.95143712 -3.5838203 -1.32734085 0 0 Z " fill="#404549" transform="translate(120,89)"/>
<path d="M0 0 C2.31 0 4.62 0 7 0 C5.97513774 2.04972452 4.95640741 4.07571345 3.8125 6.0625 C2.68544646 8.15384706 2.68544646 8.15384706 4 11 C2.68 11 1.36 11 0 11 C-0.103125 11.70125 -0.20625 12.4025 -0.3125 13.125 C-1.72461955 19.03022722 -4.67035956 24.57772603 -9.6484375 28.19921875 C-15.18202927 31.41773641 -20.71100813 32.08462324 -27 31 C-30.67645256 29.40843667 -34.16454166 27.67091668 -36 24 C-33.45796602 24.47074703 -31.9853529 25.01076993 -29.875 26.5625 C-25.55097785 28.72451107 -21.73547168 28.86992369 -17 28 C-8.02823167 23.86554455 -5.01964181 17.34781666 -1.3125 8.6875 C-0.99216797 7.94693359 -0.67183594 7.20636719 -0.34179688 6.44335938 C0.44193174 4.63025587 1.2213998 2.81531171 2 1 C1.34 0.67 0.68 0.34 0 0 Z " fill="#261E12" transform="translate(123,147)"/>
<path d="M0 0 C0.33 0 0.66 0 1 0 C1.33 2.64 1.66 5.28 2 8 C5.3 8 8.6 8 12 8 C12.37511719 8.76183594 12.75023438 9.52367187 13.13671875 10.30859375 C15.97418839 16.03356398 18.87226975 21.69663198 22.01953125 27.2578125 C22.71170485 28.48773053 23.36884192 29.73768383 24 31 C22.1875 30.7890625 22.1875 30.7890625 20 30 C18.4375 27.9609375 18.4375 27.9609375 17 25.375 C16.49210937 24.47523438 15.98421875 23.57546875 15.4609375 22.6484375 C14.97882813 21.77445313 14.49671875 20.90046875 14 20 C13.20934222 18.66606816 12.41783561 17.33263858 11.625 16 C10 13 10 13 10 11 C9.2575 11.763125 8.515 12.52625 7.75 13.3125 C2 18.93181818 2 18.93181818 -1.75 19.1875 C-2.86375 19.0946875 -2.86375 19.0946875 -4 19 C-3.01 18.67 -2.02 18.34 -1 18 C-1 17.34 -1 16.68 -1 16 C-0.01 16 0.98 16 2 16 C2 15.34 2 14.68 2 14 C2.66 14 3.32 14 4 14 C3.67 13.01 3.34 12.02 3 11 C2.01 10.566875 2.01 10.566875 1 10.125 C-1 9 -1 9 -1.875 6.625 C-2.01261321 3.73512258 -1.52194825 2.41721193 0 0 Z " fill="#312617" transform="translate(65,140)"/>
<path d="M0 0 C0.66 0.33 1.32 0.66 2 1 C2.6328125 3.72265625 2.6328125 3.72265625 3.125 7.0625 C3.29257813 8.16722656 3.46015625 9.27195312 3.6328125 10.41015625 C3.75398437 11.26480469 3.87515625 12.11945313 4 13 C8.455 13.99 8.455 13.99 13 15 C13 15.33 13 15.66 13 16 C11.02 16.33 9.04 16.66 7 17 C7.99 17.66 8.98 18.32 10 19 C10.1875 21.4375 10.1875 21.4375 10 24 C9.84649861 26.86344772 9.84649861 26.86344772 10.625 28.9375 C11.10649135 31.58570244 10.36846295 32.74606103 9 35 C8.01 33.02 7.02 31.04 6 29 C5.34 29.99 4.68 30.98 4 32 C3.93941406 31.32453125 3.87882813 30.6490625 3.81640625 29.953125 C3.73261719 29.06109375 3.64882812 28.1690625 3.5625 27.25 C3.48128906 26.36828125 3.40007812 25.4865625 3.31640625 24.578125 C3.03761535 22.30649548 2.61209423 20.20148177 2 18 C0.35 17.67 -1.3 17.34 -3 17 C-2.34 16.67 -1.68 16.34 -1 16 C-1 15.34 -1 14.68 -1 14 C-0.01 14 0.98 14 2 14 C1.34 9.38 0.68 4.76 0 0 Z " fill="#CFCFCE" transform="translate(136,91)"/>
<path d="M0 0 C1.9375 0.3125 1.9375 0.3125 4 1 C4.33 1.99 4.66 2.98 5 4 C6.7015625 4.4640625 6.7015625 4.4640625 8.4375 4.9375 C12 6 12 6 13.4375 8.125 C13.623125 8.74375 13.80875 9.3625 14 10 C12.35 10.33 10.7 10.66 9 11 C11.64 12.98 14.28 14.96 17 17 C16.34 17.99 15.68 18.98 15 20 C13.35 19.67 11.7 19.34 10 19 C10.66 19.99 11.32 20.98 12 22 C10.68 21.67 9.36 21.34 8 21 C8 19.68 8 18.36 8 17 C9.32 16.67 10.64 16.34 12 16 C10.50256881 14.50256881 9.01175761 14.66797307 6.9375 14.4375 C5.638125 14.293125 4.33875 14.14875 3 14 C3.33 12.68 3.66 11.36 4 10 C7.465 9.505 7.465 9.505 11 9 C11 8.34 11 7.68 11 7 C6.545 7.495 6.545 7.495 2 8 C2.33 6.02 2.66 4.04 3 2 C2.34 2 1.68 2 1 2 C0.566875 3.2065625 0.566875 3.2065625 0.125 4.4375 C-1 7 -1 7 -3 8 C-6.5 8.1875 -6.5 8.1875 -10 8 C-10.66 7.34 -11.32 6.68 -12 6 C-8.7169902 4.3584951 -5.57454967 5.48111376 -2 6 C-1.34 4.02 -0.68 2.04 0 0 Z " fill="#2D2C2A" transform="translate(152,98)"/>
<path d="M0 0 C4.97112054 2.14440494 9.5017225 5.00114833 14 8 C16.80273217 8.31825732 16.80273217 8.31825732 19.875 8.25 C20.90367188 8.25515625 21.93234375 8.2603125 22.9921875 8.265625 C26.036282 7.99679588 28.2434535 7.28164154 31 6 C31 6.99 31 7.98 31 9 C30.15695313 9.18175781 29.31390625 9.36351562 28.4453125 9.55078125 C26.80175781 9.92783203 26.80175781 9.92783203 25.125 10.3125 C23.48917969 10.67794922 23.48917969 10.67794922 21.8203125 11.05078125 C18.70557647 11.77902058 18.70557647 11.77902058 17 15 C16.34 14.01 15.68 13.02 15 12 C13.88625 11.87625 12.7725 11.7525 11.625 11.625 C7.13540642 10.85093214 6.57151266 9.60011773 4 6 C0.00767207 2.98974204 -2.87164321 2.66277707 -7.8125 2.8125 C-8.97394531 2.83957031 -10.13539062 2.86664063 -11.33203125 2.89453125 C-12.21246094 2.92933594 -13.09289063 2.96414062 -14 3 C-9.01520969 -0.82167257 -6.20818726 -1.32286607 0 0 Z " fill="#0F1323" transform="translate(76,50)"/>
<path d="M0 0 C4.91133183 4.69305042 6.85468225 9.12270862 7.1953125 15.8671875 C7.18221369 17.20326637 7.15865184 18.53928077 7.125 19.875 C7.11597656 20.56335938 7.10695313 21.25171875 7.09765625 21.9609375 C7.07432513 23.64077838 7.03846326 25.32043746 7 27 C5.00309942 23.61430848 4.6059862 20.63134456 4.1875 16.75 C3.35939614 11.05598351 2.30394894 6.07929226 -2 2 C-5 0.83333333 -5 0.83333333 -8 2 C-13.8442327 6.87019392 -15.10699712 13.87215677 -17 21 C-17.33 21 -17.66 21 -18 21 C-18.63324343 13.71770051 -16.5425628 7.15894166 -11.9375 1.4375 C-7.90169385 -1.55680779 -4.71217832 -1.21866681 0 0 Z " fill="#4A4E51" transform="translate(93,76)"/>
<path d="M0 0 C3 1 3 1 4.38671875 3.16796875 C10.26946437 16.82371158 9.94462992 32.75211779 5.16796875 46.734375 C4 49 4 49 1 51 C0.525625 49.88625 0.05125 48.7725 -0.4375 47.625 C-1.25306463 45.73289006 -2.07856355 43.84287291 -3 42 C0.875 43.75 0.875 43.75 2 46 C6.8669844 35.61709996 6.45890018 20.03554402 4 9 C2.85182589 6.48338981 1.50745832 4.33412902 0 2 C0 1.34 0 0.68 0 0 Z " fill="#8C9398" transform="translate(119,76)"/>
<path d="M0 0 C1.231394 2.46278801 1.07159196 4.2795055 1 7 C2.65 7.66 4.3 8.32 6 9 C6 9.99 6 10.98 6 12 C5.34 12 4.68 12 4 12 C4 12.66 4 13.32 4 14 C3.01 13.67 2.02 13.34 1 13 C0.67 13.66 0.34 14.32 0 15 C-1.9375 14.25 -1.9375 14.25 -4 13 C-4.75 10.875 -4.75 10.875 -5 9 C-5.66 10.65 -6.32 12.3 -7 14 C-7.66 14 -8.32 14 -9 14 C-9 11.69 -9 9.38 -9 7 C-9.99 7.495 -9.99 7.495 -11 8 C-11.33 8.99 -11.66 9.98 -12 11 C-12.66 11 -13.32 11 -14 11 C-14.625 8.625 -14.625 8.625 -15 6 C-14.34 5.34 -13.68 4.68 -13 4 C-13 4.66 -13 5.32 -13 6 C-12.278125 5.979375 -11.55625 5.95875 -10.8125 5.9375 C-8.08074862 5.99820559 -5.65743909 6.39258535 -3 7 C-2.01 4.69 -1.02 2.38 0 0 Z " fill="#DEDEDE" transform="translate(63,142)"/>
<path d="M0 0 C-6.38981233 1.12761394 -6.38981233 1.12761394 -9.22265625 0.53515625 C-12.90116752 -0.17364269 -16.51982962 -0.14796751 -20.25 -0.125 C-21.3790979 -0.12209961 -21.3790979 -0.12209961 -22.53100586 -0.11914062 C-27.75131043 -0.07857269 -32.8284549 0.24777526 -38 1 C-38.33 1.99 -38.66 2.98 -39 4 C-39 3.01 -39 2.02 -39 1 C-39.66 0.67 -40.32 0.34 -41 0 C-28.8511781 -4.38018749 -11.52736675 -7.68491117 0 0 Z " fill="#141418" transform="translate(120,16)"/>
<path d="M0 0 C1.32 0.66 2.64 1.32 4 2 C2.88625 2.309375 2.88625 2.309375 1.75 2.625 C-1.82525675 4.41262837 -2.98778493 6.6000504 -5 10 C-5.99 11.485 -5.99 11.485 -7 13 C-9.3828125 13.29296875 -9.3828125 13.29296875 -12.125 13.1875 C-13.03507812 13.16042969 -13.94515625 13.13335937 -14.8828125 13.10546875 C-15.58148438 13.07066406 -16.28015625 13.03585938 -17 13 C-17.33 10.69 -17.66 8.38 -18 6 C-17.1646875 5.96132813 -17.1646875 5.96132813 -16.3125 5.921875 C-10.50405463 5.49016622 -4.30123878 4.30123878 0 0 Z " fill="#090B0D" transform="translate(112,57)"/>
<path d="M0 0 C2.7421875 -0.30078125 2.7421875 -0.30078125 6 0 C13.47537809 6.87681579 17.83532952 16.78918573 18.3046875 26.8125 C18.5958638 40.1062043 18.5958638 40.1062043 16 44 C16.04640625 42.92363281 16.0928125 41.84726563 16.140625 40.73828125 C16.59793475 25.61749969 14.03279564 14.59734537 3.4375 3.33984375 C2.31900163 2.19910251 1.16440846 1.09383825 0 0 Z " fill="#10111A" transform="translate(132,49)"/>
<path d="M0 0 C0.33 0 0.66 0 1 0 C1.05425226 2.39614126 1.09379027 4.79103853 1.125 7.1875 C1.14175781 7.86103516 1.15851563 8.53457031 1.17578125 9.22851562 C1.21518588 13.26748978 0.92896579 16.41859848 -1 20 C-1.66 20.33 -2.32 20.66 -3 21 C-3.268125 20.38125 -3.53625 19.7625 -3.8125 19.125 C-4.95556848 16.7004767 -4.95556848 16.7004767 -8 15 C-7.49396008 12.83125748 -7.00016187 11.00032373 -6 9 C-5.360625 8.773125 -4.72125 8.54625 -4.0625 8.3125 C-1.59365982 7.04208728 -1.59365982 7.04208728 -0.75 3.375 C-0.5025 2.26125 -0.255 1.1475 0 0 Z " fill="#D2E9F8" transform="translate(123,102)"/>
<path d="M0 0 C6.6 0 13.2 0 20 0 C20 0.33 20 0.66 20 1 C18.35 1 16.7 1 15 1 C14.8453125 1.804375 14.8453125 1.804375 14.6875 2.625 C13.81907303 5.62502044 12.44379704 8.2379535 11 11 C10.34 11 9.68 11 9 11 C8.71125 10.030625 8.4225 9.06125 8.125 8.0625 C7.35785318 4.89335797 7.35785318 4.89335797 5 4 C5 3.01 5 2.02 5 1 C3.35 1 1.7 1 0 1 C0 0.67 0 0.34 0 0 Z " fill="#B97A0E" transform="translate(92,143)"/>
<path d="M0 0 C0.66 0 1.32 0 2 0 C2.66 2.97 3.32 5.94 4 9 C10.90527633 11.02419904 10.90527633 11.02419904 18 11 C20.87640616 8.62499209 20.87640616 8.62499209 23 6 C22.43256205 9.29114012 21.73500467 11.0245831 19 13 C16.48272281 13.26153286 14.21896034 13.3497922 11.70703125 13.29296875 C10.64798836 13.28660149 10.64798836 13.28660149 9.56755066 13.28010559 C7.31547697 13.26333034 5.06430258 13.22568243 2.8125 13.1875 C1.28451815 13.17245157 -0.24347776 13.15876344 -1.77148438 13.14648438 C-5.51466872 13.11343089 -9.25718196 13.06165832 -13 13 C-10.08493545 11.05662363 -9.17028308 10.72325333 -5.875 10.4375 C-2.22536034 10.43313101 -2.22536034 10.43313101 -1 9 C-0.76807135 7.48530552 -0.58784762 5.96245438 -0.4375 4.4375 C-0.35371094 3.61121094 -0.26992187 2.78492187 -0.18359375 1.93359375 C-0.12300781 1.29550781 -0.06242187 0.65742187 0 0 Z " fill="#B5893A" transform="translate(97,123)"/>
<path d="M0 0 C0 3 0 3 -1 5 C-1.09683564 6.76867455 -1.12979382 8.54118303 -1.125 10.3125 C-1.12757812 11.25738281 -1.13015625 12.20226562 -1.1328125 13.17578125 C-1.005363 15.88595736 -0.60596226 18.35973585 0 21 C0.66 21 1.32 21 2 21 C2 19.35 2 17.7 2 16 C5.10776828 19.10776828 6.62168321 22.86504962 8 27 C6.35 27.66 4.7 28.32 3 29 C-0.79886563 22.84945565 -3.42288436 18.26515223 -3.375 10.875 C-3.38273437 9.67617187 -3.39046875 8.47734375 -3.3984375 7.2421875 C-2.97991726 3.83658163 -2.31565335 2.46267895 0 0 Z " fill="#9A783F" transform="translate(63,111)"/>
<path d="M0 0 C1.46726798 3.81489674 0.43336419 6.29011622 -1 10 C2.45411499 9.29920746 2.45411499 9.29920746 6 8 C7.20882096 5.99983534 7.20882096 5.99983534 8 4 C10.125 3.25 10.125 3.25 12 3 C11.9071875 4.423125 11.9071875 4.423125 11.8125 5.875 C11.874375 6.90625 11.93625 7.9375 12 9 C12.99 9.66 13.98 10.32 15 11 C8.62694402 11.74507544 2.41688675 12.10349817 -4 12 C-4.33 11.34 -4.66 10.68 -5 10 C-4.01 10 -3.02 10 -2 10 C-2.226875 9.46375 -2.45375 8.9275 -2.6875 8.375 C-3.13958145 4.93918099 -1.67178015 2.94233306 0 0 Z " fill="#2D2C2B" transform="translate(129,148)"/>
<path d="M0 0 C0.93423645 3.01031744 1.04449911 3.86650268 0 7 C0.66 7 1.32 7 2 7 C2.33 6.01 2.66 5.02 3 4 C2.69708005 9.90693899 -0.11608895 14.65233838 -4 19 C-5.33333333 19 -6.66666667 19 -8 19 C-8.33 15.37 -8.66 11.74 -9 8 C-6.2160817 9.39195915 -6.02101003 11.15575779 -5 14 C-2.99006295 10.98509443 -2.27376659 8.7850073 -1.375 5.3125 C-1.11460938 4.31863281 -0.85421875 3.32476562 -0.5859375 2.30078125 C-0.39257812 1.54152344 -0.19921875 0.78226562 0 0 Z " fill="#F2F2F2" transform="translate(126,112)"/>
<path d="M0 0 C0.66 0.33 1.32 0.66 2 1 C1.51917969 1.53109375 1.03835937 2.0621875 0.54296875 2.609375 C-1.38380447 5.59465402 -1.4958424 7.72350016 -1.6875 11.25 C-1.75324219 12.32765625 -1.81898437 13.4053125 -1.88671875 14.515625 C-1.92410156 15.33546875 -1.96148437 16.1553125 -2 17 C-2.66 17 -3.32 17 -4 17 C-4 18.98 -4 20.96 -4 23 C-4.33 23 -4.66 23 -5 23 C-5.66 19.7 -6.32 16.4 -7 13 C-7.66 13 -8.32 13 -9 13 C-8.4352699 9.09170915 -6.57868029 7.10079777 -3.9375 4.25 C-3.20402344 3.45078125 -2.47054687 2.6515625 -1.71484375 1.828125 C-1.14894531 1.22484375 -0.58304688 0.6215625 0 0 Z " fill="#EBEBEB" transform="translate(62,110)"/>
<path d="M0 0 C0.33 0 0.66 0 1 0 C1.2358396 5.77807024 0.86783046 10.51324804 -1 16 C-5.455 14.02 -5.455 14.02 -10 12 C-9.34 11.67 -8.68 11.34 -8 11 C-8 10.01 -8 9.02 -8 8 C-7.38125 7.896875 -6.7625 7.79375 -6.125 7.6875 C-3.63473516 7.12474627 -3.63473516 7.12474627 -2 4 C-1.34 4 -0.68 4 0 4 C0 2.68 0 1.36 0 0 Z " fill="#D3E9F9" transform="translate(96,103)"/>
<path d="M0 0 C1.32 0.99 2.64 1.98 4 3 C4.33 2.34 4.66 1.68 5 1 C5 2.65 5 4.3 5 6 C4.01 6.33 3.02 6.66 2 7 C1.731875 7.639375 1.46375 8.27875 1.1875 8.9375 C0 11 0 11 -2.8125 12.25 C-5.69816964 12.92898109 -8.05582965 13.17318649 -11 13 C-10.34 11.68 -9.68 10.36 -9 9 C-8.67 9.66 -8.34 10.32 -8 11 C-5.66475218 8.74259377 -3.81294927 6.7194239 -2 4 C-1.67 5.32 -1.34 6.64 -1 8 C-0.67 5.36 -0.34 2.72 0 0 Z " fill="#292827" transform="translate(152,145)"/>
<path d="M0 0 C2.82206925 1.96317861 3.04879248 3.23989637 3.75 6.6875 C4.15107758 10.92633952 3.67390658 14.8068035 3 19 C2.01 18.67 1.02 18.34 0 18 C-1.21293283 12.39018566 -1.33111384 6.71658302 -1 1 C-0.67 0.67 -0.34 0.34 0 0 Z " fill="#F7F7F7" transform="translate(73,111)"/>
<path d="M0 0 C0.66 0.33 1.32 0.66 2 1 C2.6328125 3.72265625 2.6328125 3.72265625 3.125 7.0625 C3.29257813 8.16722656 3.46015625 9.27195312 3.6328125 10.41015625 C3.75398437 11.26480469 3.87515625 12.11945313 4 13 C8.455 13.99 8.455 13.99 13 15 C13 15.33 13 15.66 13 16 C11.02 16.33 9.04 16.66 7 17 C7 17.99 7 18.98 7 20 C5.68 20.33 4.36 20.66 3 21 C2.67 20.01 2.34 19.02 2 18 C0.35 17.67 -1.3 17.34 -3 17 C-2.34 16.67 -1.68 16.34 -1 16 C-1 15.34 -1 14.68 -1 14 C-0.01 14 0.98 14 2 14 C1.34 9.38 0.68 4.76 0 0 Z " fill="#C2C2C2" transform="translate(136,91)"/>
<path d="M0 0 C0.66 0 1.32 0 2 0 C2 4.29 2 8.58 2 13 C3.32 11.68 4.64 10.36 6 9 C6.66 9.33 7.32 9.66 8 10 C7.21625 10.70125 6.4325 11.4025 5.625 12.125 C2.91639182 15.09157086 1.98277285 17.1582516 1 21 C0.67 21 0.34 21 0 21 C0 19.02 0 17.04 0 15 C-0.66 15 -1.32 15 -2 15 C-3.36722938 11.30848068 -2.5123038 9.52870887 -1 6 C-0.62406934 4.0075675 -0.28020455 2.0081326 0 0 Z " fill="#ECEBEA" transform="translate(99,108)"/>
<path d="M0 0 C2.625 1.125 2.625 1.125 5 3 C5.66499679 6.24185935 5.30056348 7.5366313 3.5 10.3125 C2.7575 11.1478125 2.7575 11.1478125 2 12 C0.68 11.67 -0.64 11.34 -2 11 C-2 7.7 -2 4.4 -2 1 C-1.34 0.67 -0.68 0.34 0 0 Z " fill="#626B71" transform="translate(90,99)"/>
<path d="M0 0 C0.99 0.33 1.98 0.66 3 1 C3.3125 3.25 3.3125 3.25 3 6 C0.9375 8.3125 0.9375 8.3125 -2 10 C-5.5625 10.1875 -5.5625 10.1875 -9 10 C-11.25328412 10.20643199 -11.25328412 10.20643199 -13 11 C-13.99 12.485 -13.99 12.485 -15 14 C-15.33 12.35 -15.66 10.7 -16 9 C-18.97 8.67 -21.94 8.34 -25 8 C-25 7.34 -25 6.68 -25 6 C-23.56260487 5.97287934 -22.12506137 5.95354933 -20.6875 5.9375 C-19.48673828 5.92009766 -19.48673828 5.92009766 -18.26171875 5.90234375 C-16 6 -16 6 -13 7 C-10.93854893 7.068991 -8.87498599 7.08467727 -6.8125 7.0625 C-5.72582031 7.05347656 -4.63914062 7.04445312 -3.51953125 7.03515625 C-2.68808594 7.02355469 -1.85664063 7.01195312 -1 7 C-0.25042843 3.52852158 -0.25042843 3.52852158 0 0 Z " fill="#8D4914" transform="translate(132,138)"/>
<path d="M0 0 C2.2477975 2.05233685 3.0022242 3.00667261 4 6 C3.63078302 10.13523019 3.32378307 12.5143254 1 16 C0.34 16 -0.32 16 -1 16 C-1 14.35 -1 12.7 -1 11 C-1.66 11 -2.32 11 -3 11 C-3 11.66 -3 12.32 -3 13 C-3.66 12.67 -4.32 12.34 -5 12 C-4.72285156 11.46890625 -4.44570312 10.9378125 -4.16015625 10.390625 C-3.79792969 9.68421875 -3.43570313 8.9778125 -3.0625 8.25 C-2.52302734 7.20585938 -2.52302734 7.20585938 -1.97265625 6.140625 C-1.04441818 4.09775567 -0.46833422 2.18884624 0 0 Z " fill="#E7E7E6" transform="translate(141,119)"/>
<path d="M0 0 C0.66 0 1.32 0 2 0 C2 0.66 2 1.32 2 2 C3.65 2.33 5.3 2.66 7 3 C7 7.62 7 12.24 7 17 C4 14 4 14 3.8125 11.3125 C3.874375 10.549375 3.93625 9.78625 4 9 C3.01 8.67 2.02 8.34 1 8 C-0.35439668 5.29120665 -0.06501451 2.99066732 0 0 Z " fill="#CBE1F0" transform="translate(118,92)"/>
<path d="M0 0 C3.68513342 1.55909491 6.99308605 3.34003766 10 6 C10 6.66 10 7.32 10 8 C6.68113126 7.60954485 5.12121993 7.10000644 2.5 4.9375 C-2.17327225 1.51290631 -8.51097675 2.70681775 -14 3 C-9.01418126 -0.82246104 -6.20867893 -1.32050261 0 0 Z " fill="#182573" transform="translate(76,50)"/>
<path d="M0 0 C1.32 0 2.64 0 4 0 C4.33 0.94875 4.66 1.8975 5 2.875 C7.17283915 6.27006117 7.51890422 6.49193978 11.1875 7.375 C12.445625 7.58125 13.70375 7.7875 15 8 C15 8.66 15 9.32 15 10 C6.80743982 10.63019694 6.80743982 10.63019694 3.4375 8 C2.963125 7.34 2.48875 6.68 2 6 C1.67 6.99 1.34 7.98 1 9 C-1.125 2.25 -1.125 2.25 0 0 Z " fill="#323130" transform="translate(42,97)"/>
<path d="M0 0 C0.33 0.66 0.66 1.32 1 2 C-0.6396875 2.4021875 -0.6396875 2.4021875 -2.3125 2.8125 C-5.84970541 3.95160005 -6.78671762 4.27976468 -9 7 C-11.85594598 12.72205547 -13.61754983 18.77897422 -15 25 C-15.33 25 -15.66 25 -16 25 C-15.63111779 16.33126805 -13.94650003 8.87697372 -8.625 1.875 C-5.48761778 -0.3659873 -3.77460695 -0.43890778 0 0 Z " fill="#424648" transform="translate(118,74)"/>
<path d="M0 0 C3.15579194 0.63115839 5.47275215 1.72104592 8.1875 3.4375 C8.88230469 3.86933594 9.57710937 4.30117187 10.29296875 4.74609375 C12 6 12 6 13 8 C12.34 8.66 11.68 9.32 11 10 C8.375 9.625 8.375 9.625 6 9 C6.99 10.485 6.99 10.485 8 12 C6.68 11.67 5.36 11.34 4 11 C4 9.68 4 8.36 4 7 C5.32 6.67 6.64 6.34 8 6 C6.50256881 4.50256881 5.01175761 4.66797307 2.9375 4.4375 C1.638125 4.293125 0.33875 4.14875 -1 4 C-0.67 2.68 -0.34 1.36 0 0 Z " fill="#252422" transform="translate(156,108)"/>
<path d="M0 0 C2.77450882 0.35367365 3.85383936 0.84723855 5.81640625 2.8984375 C10.04421353 8.89492478 13.02081473 14.64387069 14 22 C13.67 22.99 13.34 23.98 13 25 C12 24 12 24 11.9375 21.4375 C11.958125 20.633125 11.97875 19.82875 12 19 C11.34 19 10.68 19 10 19 C9.86464844 18.45472656 9.72929687 17.90945312 9.58984375 17.34765625 C7.91224043 11.47102186 5.34347159 7.42202824 1.42578125 2.75 C0 1 0 1 0 0 Z " fill="#182571" transform="translate(135,54)"/>
<path d="M0 0 C1.231394 2.46278801 1.07159196 4.2795055 1 7 C3.475 7.99 3.475 7.99 6 9 C6 9.99 6 10.98 6 12 C5.34 12 4.68 12 4 12 C4 12.66 4 13.32 4 14 C3.01 13.67 2.02 13.34 1 13 C0.67 13.66 0.34 14.32 0 15 C-0.66 14.67 -1.32 14.34 -2 14 C-2.1799928 8.78020872 -1.97094808 4.92737019 0 0 Z " fill="#C0C0C0" transform="translate(63,142)"/>
<path d="M0 0 C2.475 0.99 2.475 0.99 5 2 C4.25 8.75 4.25 8.75 2 11 C1.01 11 0.02 11 -1 11 C-1.02688151 9.35425434 -1.04634123 7.70838587 -1.0625 6.0625 C-1.07410156 5.14597656 -1.08570312 4.22945313 -1.09765625 3.28515625 C-1 1 -1 1 0 0 Z " fill="#404548" transform="translate(117,99)"/>
<path d="M0 0 C0.66 0.66 1.32 1.32 2 2 C1.01 2.495 1.01 2.495 0 3 C0 5.64 0 8.28 0 11 C-0.99 11.33 -1.98 11.66 -3 12 C-5.24197388 10.22510401 -5.94326323 9.37824511 -6.375 6.5 C-5.93484841 3.56565606 -5.35477824 2.74428018 -3 1 C-2.01 0.67 -1.02 0.34 0 0 Z " fill="#596065" transform="translate(86,87)"/>
<path d="M0 0 C-0.495 1.216875 -0.99 2.43375 -1.5 3.6875 C-2.72479441 6.92486738 -3.32803185 9.50099357 -3 13 C-3.66 13 -4.32 13 -5 13 C-5 12.01 -5 11.02 -5 10 C-5.99 10 -6.98 10 -8 10 C-7 7 -7 7 -4 5 C-6.31 5.33 -8.62 5.66 -11 6 C-7.34769214 1.25199978 -6.01084259 -0.15818007 0 0 Z " fill="#D3D3D3" transform="translate(42,116)"/>
<path d="M0 0 C0.33 0 0.66 0 1 0 C1 2.97 1 5.94 1 9 C-0.32 9.33 -1.64 9.66 -3 10 C-3 11.32 -3 12.64 -3 14 C-3.99 13.67 -4.98 13.34 -6 13 C-6 10.03 -6 7.06 -6 4 C-3 4 -3 4 -1 5 C-0.67 3.35 -0.34 1.7 0 0 Z " fill="#141312" transform="translate(162,138)"/>
<path d="M0 0 C0.97582031 0.00902344 1.95164062 0.01804688 2.95703125 0.02734375 C4.06111328 0.04474609 4.06111328 0.04474609 5.1875 0.0625 C5.1875 1.0525 5.1875 2.0425 5.1875 3.0625 C6.1775 3.3925 7.1675 3.7225 8.1875 4.0625 C7.8575 5.3825 7.5275 6.7025 7.1875 8.0625 C6.8575 6.7425 6.5275 5.4225 6.1875 4.0625 C5.5275 4.0625 4.8675 4.0625 4.1875 4.0625 C4.1875 3.4025 4.1875 2.7425 4.1875 2.0625 C2.39543453 2.20334796 0.60385083 2.35033701 -1.1875 2.5 C-2.68410156 2.62181641 -2.68410156 2.62181641 -4.2109375 2.74609375 C-6.79177613 2.91215626 -6.79177613 2.91215626 -8.8125 4.0625 C-10.81210012 4.102492 -12.81297242 4.10596799 -14.8125 4.0625 C-10.19806634 0.13168614 -5.91205348 -0.07122956 0 0 Z " fill="#803A15" transform="translate(91.8125,143.9375)"/>
<path d="M0 0 C3.23432482 5.31175653 1.81822925 11.33776425 0.515625 17.16796875 C-0.22796781 19.80997653 -1.1321601 22.39648029 -2 25 C-3.32 23.02 -4.64 21.04 -6 19 C-5.01 18.67 -4.02 18.34 -3 18 C-2.22259055 16.20347643 -2.22259055 16.20347643 -1.875 14 C-1.7203125 13.19691406 -1.565625 12.39382812 -1.40625 11.56640625 C-0.79717644 7.71870118 -0.36935116 3.87818722 0 0 Z " fill="#9CA5AC" transform="translate(98,99)"/>
<path d="M0 0 C1.19367188 -0.00515625 2.38734375 -0.0103125 3.6171875 -0.015625 C7.10730337 0.24865994 9.87153337 0.99637065 13.125 2.25 C9.74229513 4.50513658 9.09902396 4.42898443 5.23828125 4.0078125 C4.30048828 3.91113281 3.36269531 3.81445312 2.39648438 3.71484375 C0.93178711 3.54662109 0.93178711 3.54662109 -0.5625 3.375 C-1.55056641 3.27058594 -2.53863281 3.16617187 -3.55664062 3.05859375 C-5.99737297 2.79919225 -8.4364762 2.52928555 -10.875 2.25 C-7.09669302 0.18276005 -4.33184959 -0.01863161 0 0 Z " fill="#0B0C13" transform="translate(106.875,12.75)"/>
<path d="M0 0 C0.33 0 0.66 0 1 0 C1.5326514 6.258654 -0.18150494 10.45108785 -3 16 C-1.68 14.68 -0.36 13.36 1 12 C1.66 12.33 2.32 12.66 3 13 C1.7260411 15.03833424 0.38938077 17.03852126 -1 19 C-1.66 19 -2.32 19 -3 19 C-5 16 -5 16 -4.8125 13.875 C-2.05 4.1 -2.05 4.1 0 0 Z " fill="#AE7B24" transform="translate(133,120)"/>
<path d="M0 0 C-0.98605865 2.12381862 -1.92993421 3.91622569 -3.4375 5.71875 C-5.41324243 8.60333395 -6.2154678 11.39816482 -7.1875 14.75 C-7.53167969 15.92046875 -7.87585938 17.0909375 -8.23046875 18.296875 C-8.48441406 19.18890625 -8.73835938 20.0809375 -9 21 C-9.33 21 -9.66 21 -10 21 C-10.63674647 13.6774156 -8.5191642 7.11190872 -3.875 1.375 C-2 0 -2 0 0 0 Z " fill="#666C6F" transform="translate(85,76)"/>
<path d="M0 0 C3 1 3 1 4.16796875 2.50390625 C7.94408838 10.12848497 7.36620623 17.70949778 7 26 C6.67 26 6.34 26 6 26 C5.85304688 24.28103516 5.85304688 24.28103516 5.703125 22.52734375 C5.55293781 20.99731172 5.40184795 19.4673681 5.25 17.9375 C5.1571875 16.80924805 5.1571875 16.80924805 5.0625 15.65820312 C4.49020084 10.1498237 2.93475609 6.68248686 0 2 C0 1.34 0 0.68 0 0 Z " fill="#7C8489" transform="translate(119,76)"/>
<path d="M0 0 C10.58569133 -0.86140345 10.58569133 -0.86140345 15.1875 2.5 C16.115625 3.325 17.04375 4.15 18 5 C17.01 5.33 16.02 5.66 15 6 C14.154375 5.525625 13.30875 5.05125 12.4375 4.5625 C7.86587728 2.48448967 3.94045373 2.73637895 -1 3 C-0.67 2.01 -0.34 1.02 0 0 Z " fill="#1E2D89" transform="translate(119,48)"/>
<path d="M0 0 C1.40907283 2.81814566 0.50872691 4.17277204 -0.4375 7.125 C-0.72496094 8.03507812 -1.01242188 8.94515625 -1.30859375 9.8828125 C-1.65083984 10.93082031 -1.65083984 10.93082031 -2 12 C-2.66 12 -3.32 12 -4 12 C-4.33 11.34 -4.66 10.68 -5 10 C-5.66 10 -6.32 10 -7 10 C-5.6062718 5.56541027 -3.39417765 3.12621626 0 0 Z " fill="#ADAEAF" transform="translate(73,78)"/>
<path d="M0 0 C2.50063365 0.46308031 4.02373057 1.01675099 6.125 2.5 C10.266633 4.660852 14.38848575 4.7403225 19 5 C19 5.66 19 6.32 19 7 C12.34839792 7.61336495 8.05056474 7.1112538 2.49609375 3.2890625 C1 2 1 2 0 0 Z " fill="#191510" transform="translate(87,171)"/>
<path d="M0 0 C2.31 0 4.62 0 7 0 C5.97513774 2.04972452 4.95640741 4.07571345 3.8125 6.0625 C2.68544646 8.15384706 2.68544646 8.15384706 4 11 C2.35 11 0.7 11 -1 11 C-0.39009109 7.44219804 0.5783681 4.3171411 2 1 C1.34 0.67 0.68 0.34 0 0 Z " fill="#231C14" transform="translate(123,147)"/>
<path d="M0 0 C0.74958984 0.00451172 1.49917969 0.00902344 2.27148438 0.01367188 C4.11852383 0.02543646 5.96552213 0.04337135 7.8125 0.0625 C4.79156785 3.08343215 1.24877928 2.52926834 -2.8125 2.6875 C-3.61429687 2.72617187 -4.41609375 2.76484375 -5.2421875 2.8046875 C-7.22357556 2.89903931 -9.20550645 2.98186215 -11.1875 3.0625 C-11.1875 2.4025 -11.1875 1.7425 -11.1875 1.0625 C-7.42449626 -0.19183458 -3.91539091 -0.04445422 0 0 Z " fill="#111C59" transform="translate(100.1875,38.9375)"/>
<path d="M0 0 C1.20628008 2.33214148 2.1654738 4.49642139 3 7 C3.99 7 4.98 7 6 7 C6 8.98 6 10.96 6 13 C4.68 13 3.36 13 2 13 C2.66 11.68 3.32 10.36 4 9 C3.34 8.67 2.68 8.34 2 8 C2 7.34 2 6.68 2 6 C0.68 5.67 -0.64 5.34 -2 5 C-1.34 3.35 -0.68 1.7 0 0 Z " fill="#11100F" transform="translate(30,120)"/>
<path d="M0 0 C1.46184058 0.22860058 2.91955419 0.48370392 4.375 0.75 C5.59316406 0.95882812 5.59316406 0.95882812 6.8359375 1.171875 C9 2 9 2 10.2890625 4.078125 C10.64097656 5.02945313 10.64097656 5.02945313 11 6 C8.125 6.625 8.125 6.625 5 7 C4.34 6.34 3.68 5.68 3 5 C4.65 5 6.3 5 8 5 C8 4.34 8 3.68 8 3 C3.545 3.495 3.545 3.495 -1 4 C-0.67 2.68 -0.34 1.36 0 0 Z " fill="#464441" transform="translate(155,102)"/>
<path d="M0 0 C0.66 0.33 1.32 0.66 2 1 C1.51917969 1.54140625 1.03835937 2.0828125 0.54296875 2.640625 C-1.31323558 5.47897288 -1.48737656 7.38792626 -1.6875 10.75 C-1.75324219 11.73484375 -1.81898437 12.7196875 -1.88671875 13.734375 C-1.92410156 14.48203125 -1.96148437 15.2296875 -2 16 C-2.66 16 -3.32 16 -4 16 C-4.85691641 12.57233436 -5.01174497 10.37248325 -4 7 C-4 6.01 -4 5.02 -4 4 C-2 1.8125 -2 1.8125 0 0 Z " fill="#CFCECC" transform="translate(62,110)"/>
<path d="M0 0 C0.33 0.99 0.66 1.98 1 3 C-0.1875 5.1875 -0.1875 5.1875 -2 7 C-3.32 7 -4.64 7 -6 7 C-6.99 7.495 -6.99 7.495 -8 8 C-8 5.69 -8 3.38 -8 1 C-7.34 1 -6.68 1 -6 1 C-6 1.99 -6 2.98 -6 4 C-5.566875 3.525625 -5.13375 3.05125 -4.6875 2.5625 C-3 1 -3 1 0 0 Z " fill="#B9BABA" transform="translate(148,149)"/>
<path d="M0 0 C2.0625 0.4375 2.0625 0.4375 4 1 C3.01 1.33 2.02 1.66 1 2 C0.938125 2.969375 0.87625 3.93875 0.8125 4.9375 C0.13289912 9.82462984 -2.22590625 13.97281094 -5 18 C-5.66 18.33 -6.32 18.66 -7 19 C-6.71253906 18.31421875 -6.42507812 17.6284375 -6.12890625 16.921875 C-4.46409818 12.61296 -3.21721345 8.19152603 -1.90234375 3.765625 C-1 1 -1 1 0 0 Z " fill="#9F804D" transform="translate(132,108)"/>
<path d="M0 0 C0.33 0 0.66 0 1 0 C1 3.96 1 7.92 1 12 C2.32 12.33 3.64 12.66 5 13 C2.69 14.65 0.38 16.3 -2 18 C-1.34 12.06 -0.68 6.12 0 0 Z " fill="#C0CAD1" transform="translate(102,104)"/>
<path d="M0 0 C3.10776828 3.10776828 4.62168321 6.86504962 6 11 C5.01 11.33 4.02 11.66 3 12 C0.9375 9.9375 0.9375 9.9375 -1 7 C-0.75 3.1875 -0.75 3.1875 0 0 Z " fill="#C08112" transform="translate(65,127)"/>
<path d="M0 0 C0.56332031 0.36480469 1.12664062 0.72960938 1.70703125 1.10546875 C0.12503494 1.75457029 -1.45862599 2.39961569 -3.04296875 3.04296875 C-3.9246875 3.40261719 -4.80640625 3.76226562 -5.71484375 4.1328125 C-7.90482979 4.95903451 -10.01195146 5.59916818 -12.29296875 6.10546875 C-11.29296875 3.10546875 -11.29296875 3.10546875 -9.3671875 1.8671875 C-8.57957031 1.51269531 -7.79195313 1.15820312 -6.98046875 0.79296875 C-6.20058594 0.42558594 -5.42070313 0.05820312 -4.6171875 -0.3203125 C-2.29296875 -0.89453125 -2.29296875 -0.89453125 0 0 Z " fill="#17236E" transform="translate(88.29296875,42.89453125)"/>
<path d="M0 0 C-1.65 1.65 -3.3 3.3 -5 5 C-4.01 5 -3.02 5 -2 5 C-2 5.99 -2 6.98 -2 8 C-1.34 8.33 -0.68 8.66 0 9 C-0.99 9 -1.98 9 -3 9 C-3 8.01 -3 7.02 -3 6 C-3.99 6 -4.98 6 -6 6 C-7.6875 3.5 -7.6875 3.5 -9 1 C-5.57367167 -0.61798838 -3.61944899 -1.34053666 0 0 Z " fill="#474747" transform="translate(39,121)"/>
<path d="M0 0 C0.33 0 0.66 0 1 0 C1.28875 0.969375 1.5775 1.93875 1.875 2.9375 C2.64214682 6.10664203 2.64214682 6.10664203 5 7 C5.33 6.01 5.66 5.02 6 4 C6.33 4.66 6.66 5.32 7 6 C6.67 6.66 6.34 7.32 6 8 C3.9375 8.625 3.9375 8.625 2 9 C1.67 8.34 1.34 7.68 1 7 C0.01 7.495 0.01 7.495 -1 8 C-1.66 7.34 -2.32 6.68 -3 6 C-2.01 4.02 -1.02 2.04 0 0 Z " fill="#3F3E3E" transform="translate(58,150)"/>
<path d="M0 0 C2.31 0.33 4.62 0.66 7 1 C6.67 2.32 6.34 3.64 6 5 C5.34 5 4.68 5 4 5 C4 6.65 4 8.3 4 10 C3.67 10 3.34 10 3 10 C2.67 7.69 2.34 5.38 2 3 C1.34 3 0.68 3 0 3 C0 2.01 0 1.02 0 0 Z " fill="#525254" transform="translate(158,133)"/>
<path d="M0 0 C2.625 0.9375 2.625 0.9375 5 2 C4.67 2.99 4.34 3.98 4 5 C2.35 5.33 0.7 5.66 -1 6 C-1 7.98 -1 9.96 -1 12 C-3 10 -3 10 -3.125 7.375 C-3.08375 6.59125 -3.0425 5.8075 -3 5 C-1.35 4.67 0.3 4.34 2 4 C2 3.34 2 2.68 2 2 C0.68 1.67 -0.64 1.34 -2 1 C-1.34 0.67 -0.68 0.34 0 0 Z " fill="#434343" transform="translate(164,119)"/>
<path d="M0 0 C2 1.375 2 1.375 4 3 C4 3.66 4 4.32 4 5 C3.09507813 5.16435547 3.09507813 5.16435547 2.171875 5.33203125 C-3.93684987 6.50797128 -3.93684987 6.50797128 -9 10 C-7.549046 6.17475764 -5.61818068 4.80909034 -2 3 C-1.34 3 -0.68 3 0 3 C0 2.01 0 1.02 0 0 Z " fill="#3C3C3C" transform="translate(40,111)"/>
<path d="M0 0 C0.66 0.66 1.32 1.32 2 2 C1.9765625 4.8203125 1.9765625 4.8203125 1.625 8.125 C1.51414062 9.22070312 1.40328125 10.31640625 1.2890625 11.4453125 C1.14597656 12.70988281 1.14597656 12.70988281 1 14 C-1.9375 12.8125 -1.9375 12.8125 -5 11 C-5.875 8.3125 -5.875 8.3125 -6 6 C-5.566875 6.474375 -5.13375 6.94875 -4.6875 7.4375 C-2.97690387 9.23686957 -2.97690387 9.23686957 0 10 C0 6.7 0 3.4 0 0 Z " fill="#303436" transform="translate(115,98)"/>
<path d="M0 0 C0.33 0 0.66 0 1 0 C1.33 2.64 1.66 5.28 2 8 C4.97 8.495 4.97 8.495 8 9 C6.3125 10.125 6.3125 10.125 4 11 C1.3125 10.4375 1.3125 10.4375 -1 9 C-2.16822469 6.04049744 -2.26109611 4.64403708 -1.0625 1.6875 C-0.711875 1.130625 -0.36125 0.57375 0 0 Z " fill="#684E29" transform="translate(65,140)"/>
<path d="M0 0 C0.66 0 1.32 0 2 0 C2 2.97 2 5.94 2 9 C2.99 9.33 3.98 9.66 5 10 C4.01 10 3.02 10 2 10 C2 10.99 2 11.98 2 13 C1.34 13 0.68 13 0 13 C0 8.71 0 4.42 0 0 Z " fill="#2F3336" transform="translate(86,100)"/>
<path d="M0 0 C1.98 0.99 1.98 0.99 4 2 C4 3.65 4 5.3 4 7 C2.02 7.99 2.02 7.99 0 9 C0 6.03 0 3.06 0 0 Z " fill="#C5DAE9" transform="translate(88,100)"/>
<path d="M0 0 C1 3 1 3 0.00390625 5.26171875 C-0.47175781 6.06222656 -0.94742188 6.86273438 -1.4375 7.6875 C-2.14712891 8.89986328 -2.14712891 8.89986328 -2.87109375 10.13671875 C-3.24363281 10.75160156 -3.61617188 11.36648437 -4 12 C-4.66 11.67 -5.32 11.34 -6 11 C-6 9.02 -6 7.04 -6 5 C-5.67 5.66 -5.34 6.32 -5 7 C-1.98672434 5.49336217 -1.38943382 2.96833589 0 0 Z " fill="#814013" transform="translate(106,147)"/>
<path d="M0 0 C0.33 0.66 0.66 1.32 1 2 C2.65 2 4.3 2 6 2 C6.33 4.64 6.66 7.28 7 10 C6.34 10 5.68 10 5 10 C5 7.69 5 5.38 5 3 C4.01 3.495 4.01 3.495 3 4 C2.67 4.99 2.34 5.98 2 7 C1.34 7 0.68 7 0 7 C-1.125 2.25 -1.125 2.25 0 0 Z " fill="#C9C9C9" transform="translate(49,146)"/>
<path d="M0 0 C2 3 2 3 2 6 C2.66 6.33 3.32 6.66 4 7 C2.35 8.32 0.7 9.64 -1 11 C-1 9.68 -1 8.36 -1 7 C-1.66 6.67 -2.32 6.34 -3 6 C-3 5.34 -3 4.68 -3 4 C-2.34 4 -1.68 4 -1 4 C-0.67 2.68 -0.34 1.36 0 0 Z " fill="#C1C1C1" transform="translate(40,135)"/>
<path d="M0 0 C1.65 0.33 3.3 0.66 5 1 C5 1.66 5 2.32 5 3 C3.35 3.33 1.7 3.66 0 4 C0.33 6.31 0.66 8.62 1 11 C0.34 11 -0.32 11 -1 11 C-1.33 8.03 -1.66 5.06 -2 2 C-1.34 2 -0.68 2 0 2 C0 1.34 0 0.68 0 0 Z " fill="#C7C7C7" transform="translate(161,120)"/>
<path d="M0 0 C0.66 0.99 1.32 1.98 2 3 C2.99 3.66 3.98 4.32 5 5 C4.525625 5.495 4.05125 5.99 3.5625 6.5 C1.37832093 9.99468651 1.34086089 12.90966936 1 17 C0.34 16.67 -0.32 16.34 -1 16 C-0.67 10.72 -0.34 5.44 0 0 Z " fill="#BFC6CA" transform="translate(76,114)"/>
<path d="M0 0 C0.66 0 1.32 0 2 0 C2 3.96 2 7.92 2 12 C-0.475 11.01 -0.475 11.01 -3 10 C-3.8125 7.875 -3.8125 7.875 -4 6 C-1.525 7.485 -1.525 7.485 1 9 C0.67 6.03 0.34 3.06 0 0 Z " fill="#87949D" transform="translate(84,99)"/>
<path d="M0 0 C2.97 0.33 5.94 0.66 9 1 C9 1.33 9 1.66 9 2 C7.02 2.33 5.04 2.66 3 3 C3 3.99 3 4.98 3 6 C1.68 6.33 0.36 6.66 -1 7 C-1.33 6.01 -1.66 5.02 -2 4 C-1.34 2.68 -0.68 1.36 0 0 Z " fill="#BCBBBB" transform="translate(140,105)"/>
<path d="M0 0 C1.32 0.33 2.64 0.66 4 1 C4 2.65 4 4.3 4 6 C2.68 6.33 1.36 6.66 0 7 C0 4.69 0 2.38 0 0 Z " fill="#B2C6D2" transform="translate(116,101)"/>
<path d="M0 0 C6.52307692 0.61538462 6.52307692 0.61538462 8.9375 2.5625 C9.288125 3.036875 9.63875 3.51125 10 4 C9.67 4.99 9.34 5.98 9 7 C8.46375 6.360625 7.9275 5.72125 7.375 5.0625 C4.55632807 2.61470596 2.66139268 2.33285388 -1 2 C-0.67 1.34 -0.34 0.68 0 0 Z " fill="#333638" transform="translate(86,75)"/>
<path d="M0 0 C4.72463088 0.46319911 8.17057052 1.09891706 12 4 C12 4.66 12 5.32 12 6 C10.3713449 5.57630928 8.74712622 5.1355377 7.125 4.6875 C6.22007813 4.44386719 5.31515625 4.20023438 4.3828125 3.94921875 C2 3 2 3 0 0 Z " fill="#172470" transform="translate(107,41)"/>
<path d="M0 0 C3.26841021 1.63420511 3.61525119 4.87781598 4.75 8.1875 C4.8325 8.785625 4.915 9.38375 5 10 C4.34 10.66 3.68 11.32 3 12 C2.34 11.67 1.68 11.34 1 11 C0.5859375 8.49609375 0.5859375 8.49609375 0.375 5.4375 C0.30023438 4.42558594 0.22546875 3.41367188 0.1484375 2.37109375 C0.09945312 1.58863281 0.05046875 0.80617188 0 0 Z " fill="#D3D3D3" transform="translate(117,120)"/>
<path d="M0 0 C1.39864092 3.17872935 0.89282517 4.30111022 -0.3125 7.6875 C-2 11 -2 11 -4 12 C-3.67 9.69 -3.34 7.38 -3 5 C-3.66 4.67 -4.32 4.34 -5 4 C-4.01 4 -3.02 4 -2 4 C-1.34 2.68 -0.68 1.36 0 0 Z " fill="#A9AAAA" transform="translate(107,65)"/>
<path d="M0 0 C1.32 0.99 2.64 1.98 4 3 C4.33 2.34 4.66 1.68 5 1 C5 2.65 5 4.3 5 6 C3.35 6.33 1.7 6.66 0 7 C0 4.69 0 2.38 0 0 Z " fill="#6C6B6B" transform="translate(152,145)"/>
<path d="M0 0 C0.93423645 3.01031744 1.04449911 3.86650268 0 7 C0.66 7 1.32 7 2 7 C2.33 6.01 2.66 5.02 3 4 C2.25 9.75 2.25 9.75 0 12 C-1.57312496 8.32937509 -2.14440048 6.55697326 -1.125 2.625 C-0.75375 1.75875 -0.3825 0.8925 0 0 Z " fill="#E6E5E3" transform="translate(126,112)"/>
<path d="M0 0 C0.33 0.66 0.66 1.32 1 2 C3.01822917 1.90234375 5.03645833 1.8046875 7.0546875 1.70703125 C7.69664062 1.80371094 8.33859375 1.90039062 9 2 C9.99 3.485 9.99 3.485 11 5 C8.69 5.66 6.38 6.32 4 7 C4.33 6.01 4.66 5.02 5 4 C3.35 3.67 1.7 3.34 0 3 C0 2.01 0 1.02 0 0 Z " fill="#9D9E9F" transform="translate(154,110)"/>
<path d="M0 0 C1.46726798 3.81489674 0.43336419 6.29011622 -1 10 C-0.34 10 0.32 10 1 10 C1 10.66 1 11.32 1 12 C-0.65 12 -2.3 12 -4 12 C-4.33 11.34 -4.66 10.68 -5 10 C-4.01 10 -3.02 10 -2 10 C-2.226875 9.46375 -2.45375 8.9275 -2.6875 8.375 C-3.13958145 4.93918099 -1.67178015 2.94233306 0 0 Z " fill="#3D3934" transform="translate(129,148)"/>
<path d="M0 0 C2.2477975 2.05233685 3.0022242 3.00667261 4 6 C3.5625 8.6875 3.5625 8.6875 3 11 C2.34 10.34 1.68 9.68 1 9 C1 7.68 1 6.36 1 5 C0.34 4.67 -0.32 4.34 -1 4 C-0.67 2.68 -0.34 1.36 0 0 Z " fill="#DCDCDD" transform="translate(141,119)"/>
<path d="M0 0 C-4.62197306 2.21854707 -7.76824163 3.38281159 -13 3 C-8.86938013 -0.51867619 -5.24994789 -1.74998263 0 0 Z " fill="#925810" transform="translate(90,145)"/>
<path d="M0 0 C1.32 0.33 2.64 0.66 4 1 C3.67 3.64 3.34 6.28 3 9 C2.34 8.67 1.68 8.34 1 8 C0.40644386 5.35139573 0.25790731 2.70802678 0 0 Z " fill="#A7A8A8" transform="translate(128,83)"/>
<path d="M0 0 C0.66 0.66 1.32 1.32 2 2 C-1.4766338 4.14336161 -4.21229195 4.21277626 -8.25 4.125 C-9.32765625 4.10695313 -10.4053125 4.08890625 -11.515625 4.0703125 C-12.33546875 4.04710937 -13.1553125 4.02390625 -14 4 C-14 3.67 -14 3.34 -14 3 C-13.32453125 2.95101562 -12.6490625 2.90203125 -11.953125 2.8515625 C-11.06109375 2.77679688 -10.1690625 2.70203125 -9.25 2.625 C-8.36828125 2.55539063 -7.4865625 2.48578125 -6.578125 2.4140625 C-4.00933618 2.00149945 -2.24158985 1.28839043 0 0 Z " fill="#0D1546" transform="translate(106,56)"/>
<path d="M0 0 C3.34249629 0.59687434 5.46436342 1.73603877 8 4 C8 4.66 8 5.32 8 6 C5.6875 5.8125 5.6875 5.8125 3 5 C1.1875 2.4375 1.1875 2.4375 0 0 Z " fill="#1C2B83" transform="translate(78,52)"/>
<path d="M0 0 C0.66 0.33 1.32 0.66 2 1 C1.45276317 4.37462715 0.9451 6.08235 -1 9 C-1.66 9 -2.32 9 -3 9 C-2.01 6.03 -1.02 3.06 0 0 Z " fill="#382A12" transform="translate(121,157)"/>
<path d="M0 0 C1 3 1 3 1 6 C1.99 6.66 2.98 7.32 4 8 C2.35 8 0.7 8 -1 8 C-1 6.68 -1 5.36 -1 4 C-1.66 4 -2.32 4 -3 4 C-3 3.01 -3 2.02 -3 1 C-2.01 0.67 -1.02 0.34 0 0 Z " fill="#3C3B3B" transform="translate(140,151)"/>
<path d="M0 0 C0.99 0.33 1.98 0.66 3 1 C2.01 1.495 2.01 1.495 1 2 C1.33 3.65 1.66 5.3 2 7 C-1.3 7 -4.6 7 -8 7 C-7.67 6.34 -7.34 5.68 -7 5 C-4.69 5 -2.38 5 0 5 C0 3.35 0 1.7 0 0 Z " fill="#B5B6B6" transform="translate(44,103)"/>
<path d="M0 0 C0.66 0 1.32 0 2 0 C1.979375 0.78375 1.95875 1.5675 1.9375 2.375 C1.81315937 4.98114961 1.81315937 4.98114961 3 7 C0.69 6.67 -1.62 6.34 -4 6 C-2.7260411 3.96166576 -1.38938077 1.96147874 0 0 Z " fill="#B1B1B1" transform="translate(153,100)"/>
<path d="M0 0 C0.99 0 1.98 0 3 0 C3 1.65 3 3.3 3 5 C1.68 5 0.36 5 -1 5 C-0.67 3.35 -0.34 1.7 0 0 Z " fill="#B7CBD8" transform="translate(113,91)"/>
<path d="M0 0 C0.99 0.33 1.98 0.66 3 1 C3.3125 3.25 3.3125 3.25 3 6 C0.5 8.3125 0.5 8.3125 -2 10 C-1.67 9.46375 -1.34 8.9275 -1 8.375 C0.22699204 5.4608939 0.14233286 3.13132292 0 0 Z " fill="#6E5940" transform="translate(132,138)"/>
<path d="M0 0 C2.31 0 4.62 0 7 0 C7 0.66 7 1.32 7 2 C5.71254964 2.38922918 4.41980403 2.76098036 3.125 3.125 C2.40570313 3.33382812 1.68640625 3.54265625 0.9453125 3.7578125 C0.30335938 3.83773437 -0.33859375 3.91765625 -1 4 C-1.66 3.34 -2.32 2.68 -3 2 C-2.01 2 -1.02 2 0 2 C0 1.34 0 0.68 0 0 Z " fill="#D4D4D4" transform="translate(156,105)"/>
<path d="M0 0 C0.99 0 1.98 0 3 0 C3 1.98 3 3.96 3 6 C1.68 5.34 0.36 4.68 -1 4 C-0.67 2.68 -0.34 1.36 0 0 Z " fill="#B3C6D3" transform="translate(83,91)"/>
<path d="M0 0 C0.99 0.66 1.98 1.32 3 2 C2.67 2.33 2.34 2.66 2 3 C2.99 3.66 3.98 4.32 5 5 C2.69 5 0.38 5 -2 5 C-2.33 4.01 -2.66 3.02 -3 2 C-2.01 2 -1.02 2 0 2 C0 1.34 0 0.68 0 0 Z " fill="#181D34" transform="translate(86,56)"/>
<path d="M0 0 C1.32 1.32 2.64 2.64 4 4 C2.66666667 5.33333333 1.33333333 6.66666667 0 8 C-0.38063221 5.6739143 -0.71269945 3.33944736 -1 1 C-0.67 0.67 -0.34 0.34 0 0 Z " fill="#3A3A3B" transform="translate(157,141)"/>
<path d="M0 0 C0.66 0.33 1.32 0.66 2 1 C2.75 3.375 2.75 3.375 3 6 C2.01 7.485 2.01 7.485 1 9 C-1.125 2.25 -1.125 2.25 0 0 Z " fill="#3D3C3D" transform="translate(42,97)"/>
<path d="M0 0 C1.65 0 3.3 0 5 0 C5.33 0.99 5.66 1.98 6 3 C5.01 3 4.02 3 3 3 C3 2.34 3 1.68 3 1 C2.34 1 1.68 1 1 1 C1.33 3.31 1.66 5.62 2 8 C1.34 8 0.68 8 0 8 C0 5.36 0 2.72 0 0 Z " fill="#91A0A9" transform="translate(117,91)"/>
<path d="M0 0 C0.33 1.32 0.66 2.64 1 4 C2.65 4 4.3 4 6 4 C5.67 4.66 5.34 5.32 5 6 C3.02 6 1.04 6 -1 6 C-0.67 4.02 -0.34 2.04 0 0 Z " fill="#BCBCBC" transform="translate(129,152)"/>
<path d="M0 0 C0.66 0 1.32 0 2 0 C2 0.66 2 1.32 2 2 C2.66 2.33 3.32 2.66 4 3 C2.33333333 4.66666667 0.66666667 6.33333333 -1 8 C-1.125 2.25 -1.125 2.25 0 0 Z " fill="#D1D1D1" transform="translate(44,142)"/>
<path d="M0 0 C-1.44253657 3.36591866 -3.33264727 5.51047079 -6 8 C-5.62403791 5.21788056 -5.32681541 3.4120716 -3.5625 1.1875 C-2 0 -2 0 0 0 Z " fill="#5F6366" transform="translate(85,76)"/>
<path d="M0 0 C0.7734375 0.61875 0.7734375 0.61875 1.5625 1.25 C0.799375 1.53875 0.03625 1.8275 -0.75 2.125 C-3.58779308 3.21269013 -3.58779308 3.21269013 -6.4375 5.25 C-7.4275 4.59 -8.4175 3.93 -9.4375 3.25 C-3.0375 -0.93461538 -3.0375 -0.93461538 0 0 Z " fill="#181C2E" transform="translate(114.4375,57.75)"/>
<path d="M0 0 C4.875 4.75 4.875 4.75 6 7 C5.1646875 6.566875 5.1646875 6.566875 4.3125 6.125 C1.91505355 4.9586747 -0.51596939 3.9660119 -3 3 C-2.01 2.01 -1.02 1.02 0 0 Z " fill="#CA8813" transform="translate(117,134)"/>
<path d="M0 0 C1.32 0.33 2.64 0.66 4 1 C3.67 1.99 3.34 2.98 3 4 C1.02 4 -0.96 4 -3 4 C-3 3.34 -3 2.68 -3 2 C-2.01 2 -1.02 2 0 2 C0 1.34 0 0.68 0 0 Z " fill="#272726" transform="translate(39,128)"/>
<path d="M0 0 C1.41377341 2.63904371 2.37240135 5.07120629 3 8 C2.67 7.34 2.34 6.68 2 6 C-0.02463255 5.34786708 -0.02463255 5.34786708 -2 5 C-1.34 3.35 -0.68 1.7 0 0 Z " fill="#1E1C1B" transform="translate(30,120)"/>
<path d="M0 0 C0 0.66 0 1.32 0 2 C0.66 2.33 1.32 2.66 2 3 C-2.625 5.125 -2.625 5.125 -6 4 C-2.25 0 -2.25 0 0 0 Z " fill="#C2C2C2" transform="translate(37,117)"/>
<path d="M0 0 C1.20628008 2.33214148 2.1654738 4.49642139 3 7 C0.69 6.67 -1.62 6.34 -4 6 C-2.68 5.67 -1.36 5.34 0 5 C0 3.35 0 1.7 0 0 Z " fill="#151311" transform="translate(41,101)"/>
</svg>
